<?xml version="1.0" standalone="no"?>
<!DOCTYPE svg PUBLIC "-//W3C//DTD SVG 20010904//EN"
 "http://www.w3.org/TR/2001/REC-SVG-20010904/DTD/svg10.dtd">
<svg version="1.0" xmlns="http://www.w3.org/2000/svg"
 width="1800.000000pt" height="945.000000pt" viewBox="0 0 1800.000000 945.000000"
 preserveAspectRatio="xMidYMid meet">

<g transform="translate(0.000000,945.000000) scale(0.100000,-0.100000)"
fill="#000000" stroke="none">
<path d="M3145 5610 c-161 -26 -269 -77 -356 -167 -50 -53 -129 -168 -129
-190 0 -4 -12 -44 -27 -88 -25 -74 -27 -93 -27 -260 -1 -177 0 -182 31 -277
36 -107 81 -185 140 -239 78 -72 113 -92 253 -144 52 -19 213 -28 315 -16 141
15 278 85 370 190 110 125 180 394 156 604 -27 234 -132 419 -289 508 -111 62
-316 99 -437 79z m253 -243 c85 -51 129 -124 172 -285 6 -24 11 -94 11 -155
-1 -197 -62 -372 -156 -442 -113 -84 -312 -70 -403 29 -57 61 -68 81 -99 176
-26 78 -28 97 -27 230 0 130 3 154 28 232 32 98 72 157 141 207 55 40 108 51
205 45 61 -3 84 -10 128 -37z"/>
<path d="M1661 5555 c-16 -14 -56 -74 -88 -132 -32 -59 -72 -131 -90 -162 -17
-31 -42 -76 -56 -101 -34 -64 -85 -157 -116 -212 -95 -171 -211 -379 -238
-427 -18 -31 -39 -70 -47 -88 -9 -17 -27 -48 -41 -69 -29 -42 -34 -99 -9 -108
9 -3 64 -6 123 -6 99 0 109 2 127 23 30 33 72 102 79 129 4 13 23 48 44 78
l37 55 180 3 c159 2 183 0 195 -14 10 -12 16 -55 19 -136 4 -91 9 -121 20
-128 9 -6 161 -10 362 -10 l347 0 15 22 c11 15 16 45 16 94 0 107 7 104 -252
104 -193 0 -217 2 -231 18 -13 14 -16 45 -18 156 -3 187 -17 176 231 176 225
0 220 -3 220 112 0 110 5 108 -227 108 -241 0 -228 -9 -225 163 4 174 -7 167
256 167 237 0 228 -4 234 100 4 59 1 71 -17 89 -21 21 -28 21 -420 21 l-399 0
-31 -25z m109 -314 c6 -12 10 -105 10 -233 0 -271 6 -258 -131 -258 -103 0
-139 9 -139 36 0 9 22 57 48 108 27 50 51 100 55 111 3 11 12 31 21 45 8 14
31 61 52 105 53 113 63 124 84 86z"/>
<path d="M3992 5562 c-17 -17 -18 -56 -17 -646 l0 -628 24 -19 c19 -15 40 -19
110 -19 139 0 126 -53 127 513 1 267 4 492 7 501 16 42 49 -5 130 -184 24 -53
84 -183 132 -285 25 -54 63 -135 148 -315 29 -63 60 -130 67 -148 7 -18 26
-44 42 -57 29 -24 34 -25 182 -25 140 0 156 2 180 21 l26 20 0 629 0 629 -22
15 c-17 12 -48 16 -120 16 -93 0 -98 -1 -114 -25 -14 -22 -16 -71 -13 -457 2
-238 0 -443 -5 -455 -4 -13 -14 -23 -21 -23 -15 0 -45 38 -45 57 0 11 -37 93
-140 308 -21 44 -60 127 -88 185 -156 328 -192 398 -207 404 -9 3 -95 6 -191
6 -154 0 -176 -2 -192 -18z"/>
<path d="M6227 5562 c-15 -16 -17 -47 -17 -226 0 -231 0 -232 -67 -198 -72 37
-180 65 -226 58 -186 -28 -292 -117 -353 -296 -26 -77 -29 -97 -28 -210 0
-116 3 -131 32 -205 42 -106 95 -166 186 -213 67 -34 77 -36 166 -37 89 0 99
2 160 34 36 18 72 40 81 47 25 22 37 17 64 -26 l25 -40 95 0 c150 0 135 -74
135 668 0 597 -1 630 -18 645 -28 26 -212 24 -235 -1z m-162 -553 c91 -25 155
-140 155 -279 0 -131 -45 -238 -121 -288 -96 -63 -186 -37 -253 73 -31 50 -31
51 -31 190 l0 140 37 66 c32 56 45 69 85 87 55 25 73 26 128 11z"/>
<path d="M7566 5567 c-16 -12 -17 -54 -17 -638 0 -345 4 -634 7 -643 10 -26
47 -36 135 -36 131 0 119 -69 119 675 0 617 -1 635 -19 645 -29 15 -203 13
-225 -3z"/>
<path d="M7964 5566 c-16 -12 -19 -26 -17 -102 1 -57 6 -91 15 -100 9 -9 47
-14 126 -15 146 -2 152 2 152 113 0 112 -8 118 -148 118 -77 0 -114 -4 -128
-14z"/>
<path d="M9385 5556 c-14 -20 -15 -98 -13 -644 3 -731 -10 -662 128 -662 72 0
92 4 111 19 l24 19 0 289 0 288 28 53 c23 44 37 58 74 74 62 27 135 20 174
-18 57 -55 59 -66 59 -386 0 -365 -10 -341 137 -336 91 3 107 6 119 23 13 17
15 69 12 335 -4 302 -5 318 -28 380 -33 91 -93 153 -173 179 -34 11 -81 23
-103 27 -51 8 -138 -16 -211 -57 -60 -33 -78 -36 -87 -12 -4 9 -6 100 -6 202
0 102 1 194 0 203 -1 38 -27 48 -130 48 -94 0 -100 -1 -115 -24z"/>
<path d="M10622 5425 c-28 -13 -68 -27 -87 -31 -63 -11 -78 -32 -86 -115 -8
-90 -26 -109 -103 -109 -29 0 -57 -5 -64 -12 -15 -15 -16 -112 -2 -139 9 -15
22 -19 70 -19 103 0 100 10 100 -324 l0 -284 33 -48 c60 -91 168 -126 327
-105 66 9 79 14 104 42 25 28 28 37 23 82 -5 60 -24 77 -84 77 -59 0 -111 23
-123 55 -6 15 -10 126 -10 250 0 265 -4 255 115 255 95 0 109 11 109 85 1 74
-13 85 -111 85 -106 0 -113 9 -113 150 0 98 -2 110 -19 120 -25 13 -17 14 -79
-15z"/>
<path d="M6836 5180 c-91 -40 -158 -98 -205 -179 -48 -81 -61 -147 -61 -301 0
-144 13 -218 50 -284 61 -107 156 -170 281 -187 201 -27 366 17 448 121 47 59
70 123 54 148 -8 14 -30 18 -112 20 l-102 3 -58 -62 -59 -61 -71 4 c-66 3 -73
6 -110 42 -72 71 -98 171 -51 196 11 6 136 10 297 10 204 0 282 3 291 12 7 7
12 44 12 98 0 68 -6 101 -30 168 -45 130 -111 202 -227 251 -65 28 -83 31
-175 31 -92 -1 -111 -4 -172 -30z m252 -180 c49 -35 72 -75 72 -124 0 -57 -21
-64 -178 -57 -143 6 -158 12 -146 61 29 128 158 189 252 120z"/>
<path d="M8623 5171 c-39 -10 -84 -26 -99 -36 -59 -39 -119 -113 -154 -191
-33 -77 -34 -82 -34 -214 0 -132 1 -137 34 -214 42 -95 92 -154 167 -197 49
-28 69 -33 139 -37 114 -6 165 3 210 39 70 55 99 30 88 -77 -12 -115 -86 -194
-181 -194 -61 0 -89 14 -148 75 l-52 55 -87 0 c-102 0 -126 -9 -126 -49 0 -90
74 -175 189 -218 70 -26 87 -28 211 -28 124 0 142 3 219 30 70 25 95 40 142
85 45 44 59 66 72 110 25 92 26 111 28 584 1 380 -1 460 -12 467 -8 5 -57 9
-110 9 -93 0 -96 -1 -124 -30 -35 -36 -49 -37 -86 -6 -28 24 -143 57 -191 55
-13 0 -55 -8 -95 -18z m270 -199 c13 -13 37 -46 53 -75 27 -49 29 -59 29 -167
0 -107 -2 -118 -27 -161 -15 -25 -43 -60 -63 -78 -32 -28 -42 -31 -101 -31
-61 0 -66 2 -108 40 -54 50 -71 106 -70 235 1 110 14 159 55 208 41 50 60 57
141 54 54 -2 72 -7 91 -25z"/>
<path d="M7980 5160 c-19 -19 -20 -33 -20 -440 l0 -421 25 -24 c22 -23 32 -25
108 -25 139 0 128 -40 128 450 0 228 0 423 -1 432 0 38 -27 48 -126 48 -81 0
-97 -3 -114 -20z"/>

</g>
</svg>
