<svg version="1.1" id="Layer_1" xmlns="http://www.w3.org/2000/svg" xmlns:xlink="http://www.w3.org/1999/xlink" x="0px" y="0px"
	 width="100%" viewBox="0 0 1176 328" enable-background="new 0 0 1176 328" xml:space="preserve">
<path fill="#080703" opacity="1.000000" stroke="none" 
	d="
M968.476929,131.543060 
	C982.172485,122.842148 997.201721,118.763466 1012.394775,115.094383 
	C1017.857361,113.775177 1023.319397,112.416122 1028.699585,110.801376 
	C1038.392700,107.892120 1043.010620,100.594215 1044.952515,91.209961 
	C1046.428833,84.076370 1047.160156,76.726570 1049.296509,69.804321 
	C1054.023315,54.489140 1065.587402,45.429455 1080.182373,41.068436 
	C1113.733643,31.043262 1149.435181,48.694332 1162.659668,81.355453 
	C1164.645996,86.261337 1165.770264,91.856827 1165.811768,97.144974 
	C1165.930786,112.280304 1165.764038,127.451035 1164.832275,142.553711 
	C1163.439209,165.130920 1159.171143,187.186981 1150.825684,208.358017 
	C1142.452148,229.600433 1131.804321,249.308365 1114.936890,265.214355 
	C1099.833862,279.456360 1082.084473,288.333313 1062.173950,293.939850 
	C1041.258179,299.829407 1020.018250,300.035278 998.845642,298.435211 
	C967.843811,296.092285 939.854858,285.798706 918.360168,261.981873 
	C906.501160,248.841736 903.710144,233.235596 907.251343,216.343353 
	C910.582275,200.454041 916.400635,185.431580 925.877136,172.196152 
	C937.396484,156.107834 951.249207,142.264435 968.476929,131.543060 
M1104.203857,75.280952 
	C1102.371338,75.281532 1100.537109,75.228416 1098.706665,75.291153 
	C1083.713745,75.805069 1074.721191,82.069710 1069.921753,96.264252 
	C1067.750854,102.685173 1066.434448,109.454193 1065.337769,116.164589 
	C1063.885498,125.051392 1058.492554,130.101669 1050.302002,132.106674 
	C1046.571289,133.019928 1042.433594,132.283859 1038.480591,132.274231 
	C1019.518616,132.228043 1002.090332,137.762970 985.820496,147.119614 
	C961.098389,161.337097 940.201660,179.560150 931.226013,207.553635 
	C921.961792,236.447098 930.354065,256.841339 957.657104,269.199341 
	C983.383911,280.843933 1010.758118,283.441254 1038.729614,278.053009 
	C1053.466309,275.214264 1068.158203,272.195465 1081.258789,264.519836 
	C1099.397949,253.892136 1111.822876,237.575699 1121.045532,219.427216 
	C1136.597656,188.823608 1142.697876,155.669144 1142.491455,121.452110 
	C1142.451050,114.743782 1140.926758,107.866211 1139.016235,101.382149 
	C1134.092896,84.673347 1122.018433,76.699951 1104.203857,75.280952 
z"/>
<path fill="#86878B" opacity="1.000000" stroke="none" 
	d="
M109.311066,171.770477 
	C105.404861,172.234512 104.033813,170.850479 104.236000,167.287628 
	C104.490486,162.803009 104.210793,158.290634 104.340355,153.795395 
	C104.416565,151.151260 103.728951,149.814209 100.727928,149.876740 
	C93.233070,150.032898 85.723648,149.729080 78.241539,150.074509 
	C76.567886,150.151794 74.359283,151.773712 73.471092,153.306793 
	C70.637375,158.198029 68.539429,163.518906 65.655037,168.375519 
	C64.705658,169.974045 62.282024,171.493896 60.436768,171.617203 
	C54.377472,172.022171 48.274220,171.769455 41.355370,171.769455 
	C42.367142,169.571503 42.883331,168.240219 43.565048,166.999893 
	C60.332836,136.492645 77.149628,106.012238 93.851120,75.468773 
	C95.497337,72.458183 97.482231,71.260170 100.957916,71.289719 
	C119.118797,71.444153 137.282608,71.457901 155.443176,71.285858 
	C159.416367,71.248215 161.037216,72.168846 160.967148,76.519325 
	C160.782379,87.993073 160.977631,87.995422 149.441833,87.994995 
	C142.276932,87.994728 135.110809,88.073868 127.947739,87.959976 
	C125.183136,87.916023 124.032509,88.895706 124.096733,91.727753 
	C124.225128,97.390167 124.249115,103.060379 124.097313,108.721504 
	C124.018364,111.665894 125.325516,112.405067 128.003555,112.371025 
	C136.500137,112.262993 145.003128,112.481308 153.494843,112.250267 
	C157.292007,112.146950 158.516113,113.526375 158.248642,117.187363 
	C157.984695,120.800125 158.191010,124.447250 158.191010,128.638855 
	C146.782410,128.638855 135.858505,128.638855 124.181931,128.638855 
	C124.181931,136.945068 124.034523,144.717621 124.382309,152.467987 
	C124.422440,153.362411 127.201965,154.814438 128.738220,154.850006 
	C138.230759,155.069748 147.734726,155.111145 157.226746,154.878555 
	C160.897675,154.788589 162.382675,155.775253 162.063248,159.622055 
	C161.749634,163.398895 161.994873,167.222153 161.994873,171.769821 
	C144.299728,171.769821 127.036896,171.769821 109.311066,171.770477 
M104.738510,130.200729 
	C104.738510,117.692024 104.738510,105.183327 104.738510,92.674622 
	C104.350136,92.631561 103.961761,92.588509 103.573387,92.545448 
	C96.977921,106.044685 90.382446,119.543922 83.323219,133.992355 
	C90.527634,133.992355 96.625183,134.085587 102.711487,133.866196 
	C103.417137,133.840775 104.060280,132.081146 104.738510,130.200729 
z"/>
<path fill="#87888C" opacity="1.000000" stroke="none" 
	d="
M354.186401,170.689026 
	C352.067047,171.050980 349.952484,171.685837 347.827423,171.723068 
	C341.775269,171.829025 335.718842,171.691513 329.311401,171.117004 
	C329.129364,167.895538 327.774506,168.055862 326.000000,169.000000 
	C314.139496,143.498627 302.278992,117.997231 290.224304,91.846878 
	C289.337646,90.795471 288.645111,90.393028 287.559814,90.089111 
	C286.777130,91.357605 286.048553,92.527138 286.047058,93.697609 
	C286.013824,119.575500 286.061035,145.453506 286.092896,171.331482 
	C281.286957,171.474442 276.481476,171.634598 271.674957,171.754227 
	C268.543671,171.832153 268.376282,169.677841 268.383698,167.347519 
	C268.475983,138.374130 268.562866,109.400726 268.630920,80.427269 
	C268.652771,71.133934 268.625671,71.133347 277.782288,71.129066 
	C283.444641,71.126427 289.119171,71.349785 294.765015,71.043640 
	C298.403351,70.846359 300.095795,72.419441 301.538666,75.510078 
	C312.172211,98.287773 322.945465,121.000282 333.694366,143.724014 
	C334.221863,144.839157 334.932648,145.867630 336.360474,146.762650 
	C336.360474,144.561432 336.360596,142.360214 336.360443,140.158997 
	C336.358856,119.008400 336.467194,97.856750 336.264862,76.708076 
	C336.223389,72.371864 337.369080,70.610703 341.868134,71.059883 
	C345.662506,71.438698 349.516510,71.220428 353.691498,71.935928 
	C354.088043,105.299942 354.137207,137.994492 354.186401,170.689026 
z"/>
<path fill="#86878B" opacity="1.000000" stroke="none" 
	d="
M261.493988,125.498085 
	C259.926453,132.744049 259.034424,139.748505 256.813324,146.302567 
	C252.213135,159.877136 242.527512,168.489517 228.666016,172.165146 
	C216.607971,175.362579 204.621582,175.043701 192.959259,170.359756 
	C179.219635,164.841507 171.055984,154.495224 167.892563,140.211273 
	C164.385010,124.373413 165.007202,108.726967 171.820297,93.811073 
	C177.488815,81.401062 187.196564,73.670509 200.637039,70.626335 
	C210.607544,68.368080 220.504074,68.548203 230.242981,71.382828 
	C248.612396,76.729446 257.080292,90.523003 260.368622,108.190491 
	C261.393127,113.694923 261.202240,119.425560 261.493988,125.498085 
M188.774490,129.278824 
	C189.450455,132.864487 189.794434,136.552383 190.861633,140.017548 
	C194.833603,152.914368 201.885284,158.210373 214.425323,158.097748 
	C225.666199,157.996796 233.246719,151.917603 236.681152,139.521515 
	C239.986710,127.590538 240.161270,115.465370 236.921967,103.476387 
	C233.769531,91.808960 225.306763,84.964859 214.492874,84.811401 
	C202.697723,84.644020 193.885376,90.775932 191.012329,103.119316 
	C189.118408,111.256134 189.429092,119.906097 188.774490,129.278824 
z"/>
<path fill="#87888C" opacity="1.000000" stroke="none" 
	d="
M661.773804,157.997711 
	C661.717468,163.657715 662.026978,168.853409 661.534973,173.972061 
	C660.190308,187.961853 653.597595,195.460403 639.783997,198.110336 
	C630.092041,199.969589 620.221130,200.299164 610.665100,197.019318 
	C601.610718,193.911621 596.257874,186.251312 596.693359,176.817764 
	C602.409607,176.817764 608.183167,176.676422 613.936340,176.954956 
	C614.911072,177.002151 616.056763,178.718307 616.681091,179.897568 
	C619.387268,185.008682 623.085266,186.819016 630.045959,186.179291 
	C635.370056,185.689987 639.331543,182.742950 640.312195,177.533798 
	C641.183472,172.905518 641.182678,168.113098 641.568176,163.376144 
	C640.459473,163.315933 640.041321,163.158081 639.848511,163.301987 
	C622.644470,176.143173 602.937256,170.534668 595.899841,150.358765 
	C590.933105,136.119232 592.135620,122.234772 602.196838,110.399994 
	C612.390808,98.408997 628.970154,97.818481 640.761047,108.311852 
	C641.103638,108.616776 641.592285,108.757729 641.992432,108.964561 
	C642.299255,108.693680 642.752014,108.466591 642.734680,108.284401 
	C642.204163,102.729927 644.829590,101.122025 650.078674,101.744453 
	C653.988708,102.208084 657.997742,101.835808 661.773987,101.835808 
	C661.773987,120.690956 661.773987,139.094620 661.773804,157.997711 
M619.489319,153.109177 
	C627.321960,158.747147 636.322144,156.409470 639.850647,147.488739 
	C643.184753,139.059631 642.627808,130.516052 639.177856,122.199326 
	C637.365173,117.829559 633.939697,115.441437 629.195923,115.044403 
	C624.074036,114.615738 620.257019,116.649849 617.360352,120.916077 
	C612.692200,127.791328 612.348328,146.638306 619.489319,153.109177 
z"/>
<path fill="#87888C" opacity="1.000000" stroke="none" 
	d="
M455.893127,123.000000 
	C455.893036,139.289963 455.893036,155.079910 455.893036,171.709900 
	C449.930511,171.709900 443.690918,171.805573 437.462738,171.582855 
	C436.724731,171.556458 435.749023,169.879700 435.419769,168.803818 
	C435.000122,167.432693 435.126587,165.894440 435.019867,164.458252 
	C434.453857,164.412796 433.965118,164.242416 433.847565,164.382812 
	C425.756927,174.044876 415.249725,174.842072 404.297150,171.539169 
	C393.305664,168.224564 387.820435,159.648972 385.930634,148.705521 
	C383.746735,136.058685 384.533112,123.847145 391.866730,112.711983 
	C400.806183,99.138641 422.151184,95.951866 432.874420,107.217430 
	C433.189575,107.548508 433.701538,107.692245 435.146576,108.486946 
	C435.146576,106.035042 435.146912,104.190582 435.146515,102.346130 
	C435.144562,93.521751 435.249756,84.695366 435.085724,75.874001 
	C435.022949,72.500633 436.009857,70.954163 439.615631,71.181358 
	C443.429932,71.421715 447.284973,71.437706 451.096680,71.177643 
	C454.843658,70.921982 456.000275,72.356377 455.962128,76.047661 
	C455.802063,91.530357 455.893738,107.015656 455.893127,123.000000 
M411.390015,156.144562 
	C416.175232,162.096603 427.781952,160.313675 431.834229,152.656403 
	C437.361115,142.212662 438.045624,131.211884 432.297363,120.646828 
	C427.540649,111.904213 415.597870,111.941086 409.816254,120.048088 
	C404.509979,127.488548 404.013672,149.369720 411.390015,156.144562 
z"/>
<path fill="#87888C" opacity="1.000000" stroke="none" 
	d="
M671.294739,73.055687 
	C671.882568,72.452644 672.456787,71.342430 673.060425,71.326248 
	C678.215820,71.188126 683.395081,71.022423 688.519592,71.443878 
	C689.520386,71.526176 691.050110,74.099556 691.085388,75.554329 
	C691.315613,85.035324 691.191040,94.524727 691.208862,104.011345 
	C691.211853,105.594200 691.343689,107.176804 691.375427,107.870224 
	C696.940308,105.434143 702.180176,102.079384 707.876770,100.861900 
	C720.743530,98.112053 734.047485,106.412537 735.120972,119.395004 
	C736.537292,136.523819 735.469299,153.858047 735.469299,171.438736 
	C729.360962,171.438736 723.113647,171.438736 716.254700,171.438736 
	C716.161194,169.688644 715.990906,167.945114 715.987366,166.201248 
	C715.963318,154.384613 715.995178,142.567810 715.954346,130.751266 
	C715.947510,128.766418 715.865295,126.746025 715.492371,124.804596 
	C714.028442,117.183937 710.440674,114.332016 703.149048,114.792961 
	C696.682251,115.201752 691.998962,119.643433 691.839050,126.448303 
	C691.561340,138.257919 691.711548,150.078537 691.747253,161.894333 
	C691.777100,171.768021 691.818237,171.776352 682.158752,171.762817 
	C679.331482,171.758865 676.504272,171.691833 673.327271,171.001770 
	C672.987427,139.440903 673.021790,108.531921 672.934570,77.623283 
	C672.930298,76.099220 671.865662,74.578148 671.294739,73.055687 
z"/>
<path fill="#87888B" opacity="1.000000" stroke="none" 
	d="
M521.543701,163.440674 
	C513.876038,174.881577 493.538666,176.238495 481.288361,172.218384 
	C469.108765,168.221451 462.050446,157.891266 461.308594,142.344376 
	C460.734406,130.310379 462.045654,118.590042 471.002167,109.342392 
	C480.762817,99.264435 492.761383,96.737038 505.848419,100.713295 
	C518.265076,104.485886 524.557495,114.075310 526.884827,126.322197 
	C529.849365,141.922699 529.685120,141.954590 514.030640,141.956360 
	C503.250580,141.957581 492.470551,141.956604 481.810822,141.956604 
	C480.116455,149.710281 483.458893,156.953995 489.503418,159.385468 
	C496.436371,162.174301 502.180634,160.032867 506.428436,153.239609 
	C507.046814,152.250732 508.244385,151.000732 509.218414,150.960999 
	C514.638489,150.739929 520.072327,150.854874 526.972107,150.854874 
	C524.916199,155.689636 523.332214,159.414673 521.543701,163.440674 
M503.460968,117.096817 
	C498.476868,112.751442 493.383362,112.004158 488.396606,114.886673 
	C483.919067,117.474846 481.544617,123.094490 482.660706,128.462555 
	C482.963928,128.582993 483.265961,128.805145 483.570557,128.808716 
	C488.567230,128.867722 493.564178,128.920761 498.561157,128.932037 
	C507.782135,128.952866 508.457916,127.935349 504.922577,119.408676 
	C504.670410,118.800415 504.272186,118.252708 503.460968,117.096817 
z"/>
<path fill="#87888C" opacity="1.000000" stroke="none" 
	d="
M788.732788,111.669968 
	C787.581360,113.329529 786.501892,114.626289 785.235413,115.702980 
	C784.847900,116.032341 783.946960,115.755196 783.281128,115.759819 
	C772.010376,115.838074 772.009766,115.838203 772.020447,126.914001 
	C772.027344,134.071518 771.972961,141.229828 772.062866,148.386322 
	C772.150330,155.355164 774.072388,157.213120 781.030273,157.330215 
	C783.158081,157.366028 785.287048,157.335770 788.068909,157.335770 
	C788.068909,161.262390 788.273865,164.882660 787.945862,168.453995 
	C787.845703,169.544739 786.332275,171.327606 785.378662,171.386871 
	C778.307739,171.826233 771.124207,172.694000 764.153992,171.887955 
	C757.080017,171.069901 752.330261,166.180222 751.990295,158.753937 
	C751.450684,146.965469 751.510986,135.148682 751.366333,123.343285 
	C751.262634,114.886002 752.185730,115.563705 743.992737,115.848907 
	C739.458374,116.006767 737.392273,114.721260 738.119690,110.010681 
	C738.295349,108.872711 738.286987,107.663269 738.118164,106.522987 
	C737.538147,102.605309 739.390686,101.538734 742.981140,101.882393 
	C745.571716,102.130356 748.205139,101.930725 751.360535,101.930725 
	C751.360535,99.621841 751.346802,98.000290 751.362793,96.379044 
	C751.455627,86.962646 750.144226,88.873093 759.268921,85.285286 
	C763.236755,83.725151 767.301331,82.411118 772.015198,80.739464 
	C772.015198,86.747940 772.175537,92.039062 771.957581,97.314560 
	C771.817505,100.704361 772.836670,102.397415 776.436829,101.952957 
	C777.420593,101.831505 778.432190,101.921928 779.430725,101.936333 
	C789.914856,102.087502 788.620422,100.471519 788.732788,111.669968 
z"/>
<path fill="#86878B" opacity="1.000000" stroke="none" 
	d="
M534.912170,137.000000 
	C534.912659,116.362495 535.015869,96.224037 534.827271,76.088310 
	C534.789917,72.096558 535.978516,70.712555 539.925903,71.086029 
	C544.831116,71.550140 551.336426,69.864876 554.222046,72.417969 
	C556.697937,74.608505 555.196045,81.457336 555.205200,86.246613 
	C555.256348,112.874619 555.231873,139.502777 555.233276,166.130875 
	C555.233337,167.768311 555.233337,169.405731 555.233337,171.404495 
	C548.409119,171.404495 542.019958,171.404495 534.912476,171.404495 
	C534.912476,159.994232 534.912476,148.747116 534.912170,137.000000 
z"/>
<path fill="#88898D" opacity="1.000000" stroke="none" 
	d="
M746.871826,236.853760 
	C751.298340,234.719482 755.323975,231.712662 759.657776,231.170700 
	C771.811707,229.650833 780.715515,236.797302 781.503296,249.030289 
	C782.315552,261.642944 781.919067,274.339355 781.778320,286.996094 
	C781.767334,287.982635 779.744019,289.445770 778.416077,289.807983 
	C776.123169,290.433441 774.760132,289.425354 774.789673,286.636200 
	C774.906128,275.641052 774.943970,264.642914 774.819702,253.648010 
	C774.719788,244.803665 771.612549,240.053864 765.032959,238.020416 
	C754.419617,234.740295 744.525330,241.235321 743.843079,252.668457 
	C743.218933,263.128723 743.594666,273.649017 743.542358,284.142914 
	C743.511841,290.263245 743.324036,290.421936 736.119995,289.363373 
	C736.119995,285.220947 736.119934,280.955048 736.119995,276.689148 
	C736.120117,269.358246 736.127563,262.027344 736.118896,254.696426 
	C736.105347,243.243927 731.078735,237.402847 720.964294,237.068176 
	C711.681946,236.761032 704.108643,244.495193 703.917969,254.857712 
	C703.731018,265.017609 703.859192,275.183563 703.882812,285.346802 
	C703.888367,287.736420 704.267517,290.001434 700.545532,290.014404 
	C697.129639,290.026306 696.350708,288.598297 696.356445,285.496216 
	C696.388184,268.503998 696.255371,251.511536 696.196350,234.519073 
	C696.194153,233.886963 696.370911,233.254242 696.452881,232.699615 
	C702.946716,231.313995 702.946716,231.313995 704.270508,239.958603 
	C709.483521,233.514603 715.900940,230.426834 723.920715,230.896957 
	C731.883667,231.363739 737.694397,235.151688 741.669067,242.387070 
	C743.497681,240.433258 745.054565,238.769806 746.871826,236.853760 
z"/>
<path fill="#86878B" opacity="1.000000" stroke="none" 
	d="
M582.597351,101.256378 
	C584.075195,102.264542 585.974304,103.263908 585.977722,104.269768 
	C586.053528,126.397636 585.919617,148.526215 585.814697,170.654602 
	C585.814026,170.792786 585.657715,170.930222 585.360107,171.420380 
	C579.195129,171.420380 572.814697,171.420380 566.121826,171.420380 
	C566.121826,148.071793 566.121826,125.021660 566.121826,101.250595 
	C571.584473,101.250595 576.860046,101.250595 582.597351,101.256378 
z"/>
<path fill="#87888C" opacity="1.000000" stroke="none" 
	d="
M537.555420,283.069672 
	C540.622742,280.297089 544.295044,278.156891 545.798279,274.987823 
	C547.861206,270.638794 550.513611,270.631805 554.147583,271.440674 
	C553.149597,281.657501 544.584961,289.564850 533.251099,290.847504 
	C517.080505,292.677490 504.987000,282.945129 503.460449,265.878906 
	C502.927765,259.923767 503.555481,253.378723 505.549225,247.778030 
	C510.789764,233.056503 525.027161,227.116714 539.716064,232.561539 
	C549.197021,236.075897 557.614502,250.416702 555.538452,260.138550 
	C555.303040,261.240967 552.687500,262.524048 551.155090,262.550812 
	C539.661987,262.751495 528.163818,262.657593 516.667175,262.655975 
	C514.892273,262.655731 513.117371,262.655945 511.420959,262.655945 
	C509.780914,278.153931 522.163208,287.687500 537.555420,283.069672 
M515.776733,256.028412 
	C526.366760,256.028412 536.956787,256.028412 547.546448,256.028412 
	C547.342102,245.113022 540.933716,238.012619 531.013062,237.100876 
	C521.694641,236.244476 514.123291,242.302917 511.562531,252.112061 
	C510.634094,255.668304 511.938568,256.257874 515.776733,256.028412 
z"/>
<path fill="#898A8D" opacity="1.000000" stroke="none" 
	d="
M431.865601,235.028824 
	C437.429565,250.481705 442.845612,265.575989 448.766541,282.077454 
	C452.536072,271.356262 455.817993,262.021698 459.100128,252.687180 
	C463.955200,238.879196 469.030151,225.142593 473.549255,211.225494 
	C475.184296,206.190247 477.967194,205.727310 482.765198,207.077087 
	C479.838989,215.304367 477.027771,223.383255 474.095215,231.417847 
	C467.478821,249.545212 460.728760,267.624329 454.224426,285.791565 
	C453.168488,288.740845 451.928986,290.042969 448.617004,290.033722 
	C445.279205,290.024384 443.659088,289.079041 442.475769,285.802460 
	C433.378540,260.612213 424.059174,235.502213 414.816589,210.364410 
	C414.481781,209.453705 414.228302,208.513123 413.942688,207.604904 
	C419.693939,205.174652 421.512665,205.870468 423.393036,211.148071 
	C426.184509,218.982880 428.944366,226.828949 431.865601,235.028824 
z"/>
<path fill="#898A8D" opacity="1.000000" stroke="none" 
	d="
M657.469177,232.196136 
	C663.136047,231.831985 668.512451,230.851120 673.677673,231.514679 
	C681.925476,232.574234 687.261169,238.070740 687.546753,246.206116 
	C688.047913,260.481445 687.686646,274.787079 687.686646,289.095276 
	C681.972961,290.776581 681.972961,290.776581 680.254028,282.772186 
	C678.999634,283.816925 677.914490,284.704620 676.846741,285.612793 
	C670.964294,290.615967 664.181885,292.115875 656.756714,290.439423 
	C648.713989,288.623474 643.479675,282.449768 643.060852,274.689301 
	C642.618774,266.498749 646.940552,259.347260 655.576904,257.008698 
	C662.528931,255.126205 669.996094,255.146164 677.234680,254.321960 
	C678.042908,254.229935 678.851135,254.137497 679.590515,254.053131 
	C681.718750,246.611526 679.476196,240.502792 673.919006,238.293243 
	C666.201477,235.224747 656.881592,237.923935 653.843628,244.107391 
	C652.242920,247.365524 652.242920,247.365524 646.568787,246.586731 
	C645.786987,240.634949 649.199036,236.004700 657.469177,232.196136 
M650.821411,275.188965 
	C651.432983,280.152802 654.584412,282.843231 659.127441,283.944733 
	C673.232849,287.364624 681.645203,277.579346 680.705383,263.463043 
	C680.647034,262.586029 678.771606,261.072754 677.825439,261.134766 
	C671.573975,261.544525 665.223816,261.755798 659.143799,263.104675 
	C653.048584,264.457001 651.046204,267.916077 650.821411,275.188965 
z"/>
<path fill="#0A0A0A" opacity="1.000000" stroke="none" 
	d="
M976.361572,38.612831 
	C978.857666,44.798870 981.295288,50.614792 983.499573,56.517849 
	C986.470886,64.474899 984.990784,70.832001 979.565857,74.366554 
	C974.955200,77.370605 969.940918,76.976913 965.891296,73.259842 
	C958.638489,66.602737 953.647888,58.370773 950.138672,49.324341 
	C948.079407,44.015762 948.793945,38.402843 951.549133,33.402119 
	C955.825256,25.640804 968.001404,26.466410 974.221069,34.826344 
	C975.007568,35.883472 975.545776,37.125267 976.361572,38.612831 
z"/>
<path fill="#0B0B0B" opacity="1.000000" stroke="none" 
	d="
M903.858643,105.015182 
	C898.407593,100.879005 893.026978,97.206673 888.187256,92.923271 
	C886.101501,91.077316 884.544373,88.132301 883.775269,85.397430 
	C881.714661,78.069916 886.401978,72.283478 893.823669,73.609596 
	C899.038818,74.541412 904.611023,76.404015 908.791077,79.510033 
	C914.996704,84.121269 920.324646,90.003860 925.607239,95.731697 
	C928.534119,98.905235 929.732544,102.763924 926.878723,107.127884 
	C924.141541,111.313332 920.243347,111.578316 916.369873,110.468048 
	C912.142883,109.256470 908.209595,107.020683 903.858643,105.015182 
z"/>
<path fill="#898A8D" opacity="1.000000" stroke="none" 
	d="
M637.038940,262.004028 
	C637.041321,270.333618 636.968689,278.165344 637.087952,285.994141 
	C637.127869,288.610565 636.593872,289.994568 633.560059,290.004425 
	C630.594299,290.014069 629.918274,288.789917 629.947449,286.094788 
	C630.061096,275.599670 630.016479,265.102631 629.995728,254.606369 
	C629.973938,243.582108 625.127075,237.672928 615.709595,237.119278 
	C606.722046,236.590927 599.247009,243.621796 598.820251,253.809891 
	C598.395264,263.955505 598.678162,274.130798 598.650391,284.293060 
	C598.634094,290.246429 598.247559,290.534882 591.439087,289.278351 
	C591.439087,270.469055 591.439087,251.577133 591.439087,232.337433 
	C593.418396,232.337433 595.321716,232.337433 597.515259,232.337433 
	C597.951721,234.523697 598.384216,236.690369 598.975525,239.652252 
	C604.189758,233.975876 609.686646,230.740494 616.878235,230.833008 
	C627.963623,230.975616 635.550842,237.458008 636.712036,248.525055 
	C637.162292,252.815903 636.949585,257.176300 637.038940,262.004028 
z"/>
<path fill="#0B0B0B" opacity="1.000000" stroke="none" 
	d="
M875.260132,171.336670 
	C864.841309,169.311676 855.753235,165.724396 849.872131,156.658768 
	C846.138672,150.903717 848.236328,144.663635 854.713196,142.316269 
	C860.427124,140.245483 865.945068,141.523636 871.134705,143.827515 
	C876.396362,146.163361 881.473877,148.982666 886.417725,151.947571 
	C892.175476,155.400589 894.090088,159.638229 892.533142,164.181442 
	C890.542236,169.990845 885.874939,172.692307 879.100891,171.917404 
	C877.951477,171.785904 876.817688,171.517517 875.260132,171.336670 
z"/>
<path fill="#88898D" opacity="1.000000" stroke="none" 
	d="
M561.040771,232.021652 
	C566.083435,232.838348 566.115173,229.982513 566.066040,226.659912 
	C565.950195,218.835297 566.039612,218.833969 573.108582,217.456604 
	C573.108582,219.671814 573.094910,221.764206 573.110901,223.856354 
	C573.179688,232.831116 572.101929,231.974976 580.990479,232.016541 
	C581.323425,232.018097 581.656982,232.028000 581.989197,232.012100 
	C584.465210,231.893677 586.716675,231.881363 586.668274,235.432312 
	C586.617188,239.179443 584.017944,238.549332 581.754944,238.577759 
	C579.123108,238.610825 576.490540,238.585464 573.109314,238.585464 
	C573.109314,243.491745 573.109192,247.932358 573.109314,252.372955 
	C573.109497,259.531311 573.110046,266.689636 573.109924,273.847992 
	C573.109802,282.707733 575.074707,284.572540 584.116333,284.301392 
	C584.763794,284.281952 585.412231,284.298859 585.999207,284.298859 
	C587.668457,289.505005 587.103577,290.478394 582.307800,290.957581 
	C571.127197,292.074768 566.043579,287.536224 566.028503,276.390594 
	C566.014160,265.736328 566.025208,255.082047 566.025085,244.427780 
	C566.025024,242.647888 566.025024,240.867996 566.025024,238.584412 
	C563.206970,238.584412 561.078857,238.530151 558.954590,238.598190 
	C556.302307,238.683151 554.283569,238.143051 554.400330,234.856842 
	C554.520752,231.467560 556.977234,232.050842 559.090820,232.019913 
	C559.590149,232.012604 560.089661,232.020676 561.040771,232.021652 
z"/>
<path fill="#88898D" opacity="1.000000" stroke="none" 
	d="
M585.318298,89.399628 
	C579.555542,89.544647 574.223389,89.478157 568.898499,89.643791 
	C565.868896,89.738029 564.707153,88.589745 564.898743,85.537445 
	C565.106873,82.219307 565.095398,78.868950 564.899231,75.549217 
	C564.713989,72.414742 565.618347,70.966003 569.068726,71.160538 
	C573.717834,71.422661 578.399658,71.386253 583.053955,71.177132 
	C586.203796,71.035606 587.254272,72.313362 586.966614,75.271057 
	C586.512878,79.937729 586.152100,84.613441 585.318298,89.399628 
z"/>
<path fill="#8D8E91" opacity="1.000000" stroke="none" 
	d="
M490.936310,232.357895 
	C493.736633,231.439484 494.907745,232.394562 494.896942,235.392746 
	C494.835388,252.494659 494.923187,269.597534 494.732910,286.697571 
	C494.721283,287.741272 492.759460,288.763245 491.318207,289.261047 
	C490.650452,287.611359 490.112610,286.492706 490.126923,285.381165 
	C490.354980,267.706207 490.653717,250.032150 490.936310,232.357895 
z"/>
<path fill="#87888C" opacity="1.000000" stroke="none" 
	d="
M356.262177,73.881912 
	C356.437408,75.342239 356.763977,76.802399 356.765503,78.262901 
	C356.795471,106.968506 356.800751,135.674164 356.756226,164.379730 
	C356.753448,166.161133 356.298370,167.941849 355.601562,169.334793 
	C355.102997,138.437378 355.042572,107.928040 355.063385,77.418747 
	C355.064178,76.239532 355.844879,75.060844 356.262177,73.881912 
z"/>
<path fill="#75767B" opacity="1.000000" stroke="none" 
	d="
M671.183105,73.508453 
	C671.865662,74.578148 672.930298,76.099220 672.934570,77.623283 
	C673.021790,108.531921 672.987427,139.440903 672.946289,170.844345 
	C672.342834,170.395538 671.274231,169.454239 671.270386,168.508591 
	C671.141174,136.993042 671.113708,105.477097 671.183105,73.508453 
z"/>
<path fill="#7D7E81" opacity="1.000000" stroke="none" 
	d="
M286.552063,171.310730 
	C286.061035,145.453506 286.013824,119.575500 286.047058,93.697609 
	C286.048553,92.527138 286.777130,91.357605 287.578979,90.470108 
	C288.110382,91.243149 288.229858,91.733711 288.349304,92.224281 
	C288.344818,116.782784 288.368011,141.341400 288.278778,165.899582 
	C288.272217,167.697891 287.452698,169.493256 286.552063,171.310730 
z"/>
<path fill="#8D8E91" opacity="1.000000" stroke="none" 
	d="
M488.802185,289.393341 
	C488.310822,288.294128 487.397308,287.197205 487.391357,286.095367 
	C487.299042,269.044312 487.310089,251.992554 487.364044,234.941193 
	C487.366791,234.066528 487.971191,233.193756 488.654297,232.757263 
	C488.942780,251.927383 488.872498,270.660370 488.802185,289.393341 
z"/>
<path fill="#7D7E81" opacity="1.000000" stroke="none" 
	d="
M356.276398,73.506111 
	C355.844879,75.060844 355.064178,76.239532 355.063385,77.418747 
	C355.042572,107.928040 355.102997,138.437378 355.184753,169.531555 
	C355.137787,170.428467 354.940491,170.626312 354.407349,170.699493 
	C354.137207,137.994492 354.088043,105.299942 354.070557,72.103943 
	C354.831665,72.111755 355.561157,72.621033 356.276398,73.506111 
z"/>
<path fill="#75767B" opacity="1.000000" stroke="none" 
	d="
M489.041809,289.543182 
	C488.872498,270.660370 488.942780,251.927383 489.035095,232.749725 
	C489.478455,232.257874 489.899811,232.210678 490.628723,232.260681 
	C490.653717,250.032150 490.354980,267.706207 490.126923,285.381165 
	C490.112610,286.492706 490.650452,287.611359 490.927307,289.109314 
	C490.375946,289.558960 489.828674,289.626007 489.041809,289.543182 
z"/>
<path fill="#7D7E81" opacity="1.000000" stroke="none" 
	d="
M486.749451,210.512283 
	C487.443970,209.078888 487.962158,207.507217 488.916260,207.170380 
	C490.335907,206.669174 492.063538,207.040466 494.265900,207.040466 
	C492.990540,210.339981 496.825439,214.618179 491.296692,215.872849 
	C487.431366,216.750031 486.434296,214.272873 486.749451,210.512283 
z"/>
<path fill="#7D7E81" opacity="1.000000" stroke="none" 
	d="
M326.051941,169.343994 
	C327.774506,168.055862 329.129364,167.895538 328.936066,170.944275 
	C327.976898,170.765533 327.040375,170.226761 326.051941,169.343994 
z"/>
<path fill="#BFBFC1" opacity="1.000000" stroke="none" 
	d="
M288.644348,92.168793 
	C288.229858,91.733711 288.110382,91.243149 287.971741,90.371582 
	C288.645111,90.393028 289.337646,90.795471 290.072327,91.522873 
	C289.722778,91.936333 289.331085,92.024818 288.644348,92.168793 
z"/>
<path fill="#FBC900" opacity="1.000000" stroke="none" 
	d="
M1104.652954,75.287773 
	C1122.018433,76.699951 1134.092896,84.673347 1139.016235,101.382149 
	C1140.926758,107.866211 1142.451050,114.743782 1142.491455,121.452110 
	C1142.697876,155.669144 1136.597656,188.823608 1121.045532,219.427216 
	C1111.822876,237.575699 1099.397949,253.892136 1081.258789,264.519836 
	C1068.158203,272.195465 1053.466309,275.214264 1038.729614,278.053009 
	C1010.758118,283.441254 983.383911,280.843933 957.657104,269.199341 
	C930.354065,256.841339 921.961792,236.447098 931.226013,207.553635 
	C940.201660,179.560150 961.098389,161.337097 985.820496,147.119614 
	C1002.090332,137.762970 1019.518616,132.228043 1038.480591,132.274231 
	C1042.433594,132.283859 1046.571289,133.019928 1050.302002,132.106674 
	C1058.492554,130.101669 1063.885498,125.051392 1065.337769,116.164589 
	C1066.434448,109.454193 1067.750854,102.685173 1069.921753,96.264252 
	C1074.721191,82.069710 1083.713745,75.805069 1098.706665,75.291153 
	C1100.537109,75.228416 1102.371338,75.281532 1104.652954,75.287773 
M1059.979370,222.348541 
	C1054.651611,224.675079 1049.220093,226.791962 1044.015259,229.366852 
	C1027.373047,237.599854 1011.178406,238.156860 995.430054,227.170166 
	C993.525940,225.841782 991.473267,224.686386 989.381409,223.674103 
	C981.366699,219.795593 971.495239,222.700500 970.635437,229.892776 
	C970.189453,233.623215 971.799316,239.037201 974.489685,241.453125 
	C985.473511,251.316345 997.862305,259.331848 1013.237549,259.910431 
	C1028.593872,260.488251 1043.909424,259.129242 1058.460083,253.812805 
	C1064.765503,251.509003 1071.154663,248.507202 1076.382202,244.394333 
	C1084.633911,237.902130 1083.621460,227.541550 1075.167847,222.910065 
	C1070.505615,220.355743 1065.693604,220.026764 1059.979370,222.348541 
M1012.577820,179.892929 
	C1012.649719,177.416046 1013.118530,174.873077 1012.719299,172.474594 
	C1011.496338,165.126724 1003.616089,161.179932 997.701111,164.734985 
	C987.717468,170.735428 984.589355,187.985123 991.898804,196.884140 
	C994.452942,199.993713 997.985107,202.753769 1001.704468,201.059448 
	C1004.728699,199.681763 1007.385071,196.289810 1008.920776,193.160950 
	C1010.783875,189.365067 1011.298035,184.907104 1012.577820,179.892929 
M1080.434570,176.331131 
	C1080.401489,174.668900 1080.471191,172.997070 1080.316895,171.346176 
	C1079.739258,165.168716 1075.425171,161.009323 1069.257202,160.588455 
	C1064.602295,160.270828 1060.741211,163.444672 1059.133545,169.203842 
	C1058.287720,172.233795 1057.563599,175.337448 1057.207764,178.456131 
	C1056.461792,184.993668 1057.642334,190.961441 1062.573364,195.905563 
	C1065.333374,198.672867 1068.694458,200.355301 1071.919067,198.632553 
	C1074.503174,197.251938 1076.898438,194.206985 1077.851929,191.385086 
	C1079.374268,186.880325 1079.630371,181.947678 1080.434570,176.331131 
z"/>
<path fill="#ECECEC" opacity="1.000000" stroke="none" 
	d="
M104.735458,130.663132 
	C104.060280,132.081146 103.417137,133.840775 102.711487,133.866196 
	C96.625183,134.085587 90.527634,133.992355 83.323219,133.992355 
	C90.382446,119.543922 96.977921,106.044685 103.573387,92.545448 
	C103.961761,92.588509 104.350136,92.631561 104.738510,92.674622 
	C104.738510,105.183327 104.738510,117.692024 104.735458,130.663132 
z"/>
<path fill="#ECECEC" opacity="1.000000" stroke="none" 
	d="
M188.763565,128.802551 
	C189.429092,119.906097 189.118408,111.256134 191.012329,103.119316 
	C193.885376,90.775932 202.697723,84.644020 214.492874,84.811401 
	C225.306763,84.964859 233.769531,91.808960 236.921967,103.476387 
	C240.161270,115.465370 239.986710,127.590538 236.681152,139.521515 
	C233.246719,151.917603 225.666199,157.996796 214.425323,158.097748 
	C201.885284,158.210373 194.833603,152.914368 190.861633,140.017548 
	C189.794434,136.552383 189.450455,132.864487 188.763565,128.802551 
z"/>
<path fill="#ECECEC" opacity="1.000000" stroke="none" 
	d="
M619.220947,152.845093 
	C612.348328,146.638306 612.692200,127.791328 617.360352,120.916077 
	C620.257019,116.649849 624.074036,114.615738 629.195923,115.044403 
	C633.939697,115.441437 637.365173,117.829559 639.177856,122.199326 
	C642.627808,130.516052 643.184753,139.059631 639.850647,147.488739 
	C636.322144,156.409470 627.321960,158.747147 619.220947,152.845093 
z"/>
<path fill="#ECECEC" opacity="1.000000" stroke="none" 
	d="
M411.128540,155.880219 
	C404.013672,149.369720 404.509979,127.488548 409.816254,120.048088 
	C415.597870,111.941086 427.540649,111.904213 432.297363,120.646828 
	C438.045624,131.211884 437.361115,142.212662 431.834229,152.656403 
	C427.781952,160.313675 416.175232,162.096603 411.128540,155.880219 
z"/>
<path fill="#ECECEC" opacity="1.000000" stroke="none" 
	d="
M503.701416,117.386833 
	C504.272186,118.252708 504.670410,118.800415 504.922577,119.408676 
	C508.457916,127.935349 507.782135,128.952866 498.561157,128.932037 
	C493.564178,128.920761 488.567230,128.867722 483.570557,128.808716 
	C483.265961,128.805145 482.963928,128.582993 482.662994,128.456787 
	C481.544617,123.094490 483.919067,117.474846 488.396606,114.886673 
	C493.383362,112.004158 498.476868,112.751442 503.701416,117.386833 
z"/>
<path fill="#ECECEC" opacity="1.000000" stroke="none" 
	d="
M515.318604,256.029175 
	C511.938568,256.257874 510.634094,255.668304 511.562531,252.112061 
	C514.123291,242.302917 521.694641,236.244476 531.013062,237.100876 
	C540.933716,238.012619 547.342102,245.113022 547.546448,256.028412 
	C536.956787,256.028412 526.366760,256.028412 515.318604,256.029175 
z"/>
<path fill="#ECECEC" opacity="1.000000" stroke="none" 
	d="
M650.807495,274.770081 
	C651.046204,267.916077 653.048584,264.457001 659.143799,263.104675 
	C665.223816,261.755798 671.573975,261.544525 677.825439,261.134766 
	C678.771606,261.072754 680.647034,262.586029 680.705383,263.463043 
	C681.645203,277.579346 673.232849,287.364624 659.127441,283.944733 
	C654.584412,282.843231 651.432983,280.152802 650.807495,274.770081 
z"/>
<path fill="#080600" opacity="1.000000" stroke="none" 
	d="
M1060.364990,222.200912 
	C1065.693604,220.026764 1070.505615,220.355743 1075.167847,222.910065 
	C1083.621460,227.541550 1084.633911,237.902130 1076.382202,244.394333 
	C1071.154663,248.507202 1064.765503,251.509003 1058.460083,253.812805 
	C1043.909424,259.129242 1028.593872,260.488251 1013.237549,259.910431 
	C997.862305,259.331848 985.473511,251.316345 974.489685,241.453125 
	C971.799316,239.037201 970.189453,233.623215 970.635437,229.892776 
	C971.495239,222.700500 981.366699,219.795593 989.381409,223.674103 
	C991.473267,224.686386 993.525940,225.841782 995.430054,227.170166 
	C1011.178406,238.156860 1027.373047,237.599854 1044.015259,229.366852 
	C1049.220093,226.791962 1054.651611,224.675079 1060.364990,222.200912 
z"/>
<path fill="#0B0900" opacity="1.000000" stroke="none" 
	d="
M1012.486816,180.314255 
	C1011.298035,184.907104 1010.783875,189.365067 1008.920776,193.160950 
	C1007.385071,196.289810 1004.728699,199.681763 1001.704468,201.059448 
	C997.985107,202.753769 994.452942,199.993713 991.898804,196.884140 
	C984.589355,187.985123 987.717468,170.735428 997.701111,164.734985 
	C1003.616089,161.179932 1011.496338,165.126724 1012.719299,172.474594 
	C1013.118530,174.873077 1012.649719,177.416046 1012.486816,180.314255 
z"/>
<path fill="#0B0900" opacity="1.000000" stroke="none" 
	d="
M1080.428101,176.763519 
	C1079.630371,181.947678 1079.374268,186.880325 1077.851929,191.385086 
	C1076.898438,194.206985 1074.503174,197.251938 1071.919067,198.632553 
	C1068.694458,200.355301 1065.333374,198.672867 1062.573364,195.905563 
	C1057.642334,190.961441 1056.461792,184.993668 1057.207764,178.456131 
	C1057.563599,175.337448 1058.287720,172.233795 1059.133545,169.203842 
	C1060.741211,163.444672 1064.602295,160.270828 1069.257202,160.588455 
	C1075.425171,161.009323 1079.739258,165.168716 1080.316895,171.346176 
	C1080.471191,172.997070 1080.401489,174.668900 1080.428101,176.763519 
z"/>
</svg>