<svg xmlns="http://www.w3.org/2000/svg" width="1080" height="1080" viewBox="0 0 1080 1080" version="1.1"><path d="M 371.443 175.897 C 364.114 179.291, 358.919 184.427, 355.251 191.907 C 352.866 196.771, 352.462 198.949, 352.151 208.609 C 351.862 217.580, 352.208 221.317, 353.947 228.027 C 358.939 247.284, 367.627 264.704, 379.870 280 C 387.275 289.252, 396.111 296.751, 405.414 301.677 C 411.878 305.100, 413.202 305.432, 420.500 305.452 C 427.331 305.472, 429.272 305.070, 433.784 302.703 C 442.005 298.391, 446.539 293.231, 448.942 285.453 C 454.058 268.890, 449.782 246.365, 436.021 217.381 C 424.032 192.128, 418.672 184.908, 407.842 179.420 C 393.631 172.219, 381.848 171.078, 371.443 175.897 M 376 175.564 C 365.452 178.902, 357.582 186.465, 354.838 195.901 C 352.859 202.702, 353.127 221.014, 355.326 229.326 C 363.508 260.255, 385.520 290.894, 407 301.252 C 422.508 308.730, 439.339 303.190, 446.710 288.182 C 449.337 282.833, 449.494 281.768, 449.392 270 C 449.302 259.553, 448.844 256.022, 446.603 248.500 C 442.496 234.714, 439.289 226.660, 432.362 212.735 C 420.445 188.779, 417.424 185.203, 404 179.166 C 392.681 174.075, 384.165 172.979, 376 175.564 M 749.084 200.013 C 739.972 201.294, 719.529 206.540, 707.636 210.648 C 696.722 214.419, 682.717 221.451, 671.500 228.794 C 662.965 234.381, 647.333 249.346, 641.515 257.500 C 630.470 272.978, 623.575 292.542, 619.487 320 C 613.856 357.819, 609.657 369.421, 597.037 382.033 C 584.662 394.401, 566.362 400.907, 500.434 416.378 C 481.948 420.716, 455.381 428.662, 442.849 433.601 C 357.683 467.172, 273.339 558.786, 242.107 651.646 C 235.174 672.259, 232 691.898, 232 714.187 C 232 742.508, 237.334 764.476, 249.390 785.805 C 258.922 802.669, 267.014 811.084, 300.341 838.789 C 314.887 850.880, 339.639 865.664, 361.500 875.318 C 382.019 884.379, 414.444 894.348, 438 898.838 C 499.566 910.572, 549.416 912.095, 610 904.095 C 645.048 899.466, 670.185 893.751, 698.500 883.974 C 750.733 865.937, 792.216 837.778, 833.257 792.500 C 871.383 750.438, 905.849 687.371, 923.488 627.391 C 925.412 620.851, 927.864 612.575, 928.937 609 C 932.973 595.561, 938.480 570.313, 941.369 552 C 944.847 529.957, 945.593 523.661, 948.946 488 C 950.846 467.783, 954.408 400.884, 954.430 385 C 954.448 371.187, 952.561 349.005, 950.592 339.892 C 946.559 321.230, 936.692 299.091, 925.248 283.029 C 911.630 263.915, 886.487 240.965, 866.158 229.092 C 834.338 210.508, 801.235 200.319, 770 199.494 C 762.025 199.283, 752.613 199.517, 749.084 200.013 M 753.500 201.047 C 734.369 202.701, 708.068 210.532, 688.695 220.343 C 655.051 237.382, 635.161 260.814, 626.033 294.166 C 624.929 298.200, 622.434 310.950, 620.490 322.500 C 615.930 349.580, 613.919 357.455, 608.934 367.754 C 603.613 378.747, 595.573 386.940, 584.500 392.651 C 574.171 397.978, 550.608 405.584, 526 411.534 C 515.275 414.127, 500.200 417.777, 492.500 419.645 C 452.355 429.384, 420.508 442.794, 391.500 462.177 C 329.949 503.304, 275.971 569.109, 249.602 635.167 C 231.005 681.754, 227.937 724.883, 240.542 762.556 C 249.229 788.522, 259.100 801.946, 287.397 826.277 C 310.621 846.246, 324.799 855.937, 347.115 867.098 C 418.881 902.989, 520.507 916.082, 617.470 901.930 C 668.628 894.462, 715.576 879.592, 749.081 860.242 C 794.249 834.157, 833.344 796.801, 864.980 749.500 C 904.350 690.635, 931.016 617.443, 942.400 537 C 945.529 514.891, 947.447 494.318, 950.185 453.500 C 951.940 427.337, 951.941 351.517, 950.187 343.500 C 939.662 295.400, 909.708 256.045, 862.700 228.556 C 828.106 208.325, 787.533 198.105, 753.500 201.047 M 194.500 295.934 C 192.389 296.425, 194.314 296.783, 201 297.145 C 223.327 298.352, 241.136 308.971, 271.063 338.923 C 291.833 359.710, 294.493 363.879, 294.385 375.470 C 294.253 389.670, 284.950 399.050, 271.068 398.983 C 259.931 398.928, 241.403 391.588, 224.241 380.432 C 211.824 372.360, 185.511 352.523, 180.732 347.632 C 171.867 338.559, 167.940 323.598, 171.347 311.879 C 173.347 304.998, 175.872 302.630, 184.570 299.481 C 188.381 298.100, 190.032 297.192, 188.238 297.463 C 182.741 298.292, 175.051 302.120, 172.947 305.074 C 171.849 306.616, 170.224 310.825, 169.335 314.426 C 167.997 319.849, 167.917 321.966, 168.871 326.737 C 170.372 334.245, 174.023 341.608, 179.112 347.390 C 183.137 351.963, 211.811 374.021, 224.180 382.061 C 231.466 386.797, 248.196 395.075, 255.500 397.558 C 262.200 399.836, 274.680 400.581, 279.619 398.997 C 291.816 395.086, 298.351 381.967, 295.019 368.079 C 293.302 360.922, 287.927 354.044, 270.436 336.627 C 243.847 310.150, 228.034 300.109, 207.210 296.477 C 202.550 295.665, 198.459 295.053, 198.119 295.118 C 197.779 295.183, 196.150 295.550, 194.500 295.934 M 755.599 303.517 C 716.780 309.816, 695.957 326.396, 685.132 359.624 C 683.541 364.506, 681.043 375.250, 679.579 383.500 C 674.706 410.966, 673.746 415.452, 671.239 422.500 C 664.960 440.145, 651.899 451.758, 634.003 455.606 C 630.278 456.407, 615.965 457.419, 600.500 457.975 C 563.950 459.289, 555.003 460.144, 535.500 464.188 C 469.190 477.938, 390.963 527.756, 343.960 586.167 C 320.949 614.762, 304.191 647.393, 298.039 675.579 C 295.295 688.150, 293.759 705.876, 294.493 716.500 C 296.789 749.748, 306.727 772.778, 327.962 794.058 C 357.248 823.406, 409.952 843.703, 480 852.611 C 496.815 854.749, 549.870 855.629, 568.500 854.079 C 620.426 849.757, 664.155 838.710, 701.569 820.459 C 729.999 806.591, 752.105 789.841, 771.529 767.447 C 806.326 727.330, 828.100 695.210, 840.351 665.926 C 858.042 623.639, 874.525 558.242, 882.483 498.773 C 896.949 390.659, 870.538 321.666, 808.448 305.375 C 800.030 303.167, 795.885 302.712, 781.500 302.419 C 769.906 302.183, 761.669 302.532, 755.599 303.517 M 93.500 481.406 C 86.478 483.141, 83.023 485.166, 78.248 490.346 C 67.172 502.363, 69.911 518.265, 85.737 533.825 C 98.181 546.060, 119.522 557.373, 140 562.589 C 150.626 565.296, 172.432 565.166, 179.242 562.354 C 187.030 559.139, 192.257 554.822, 195.484 548.939 C 197.985 544.379, 198.470 542.369, 198.484 536.500 C 198.504 527.662, 195.975 522.192, 188.334 514.551 C 173.487 499.704, 139.008 483.405, 118.462 481.520 C 113.169 481.035, 113.527 481.199, 121.654 482.981 C 140.446 487.102, 159.479 495.118, 174.994 505.447 C 190.923 516.052, 197.267 524.557, 197.411 535.500 C 197.608 550.548, 188.137 560.142, 170.189 563.074 C 139.427 568.100, 89.552 545.178, 76.404 519.970 C 74.017 515.395, 73.546 513.273, 73.525 507 C 73.504 500.606, 73.903 498.815, 76.229 494.858 C 79.253 489.713, 86.110 484.621, 92.441 482.818 C 94.673 482.183, 100.100 481.358, 104.500 480.986 L 112.500 480.310 105.500 480.240 C 101.650 480.201, 96.250 480.726, 93.500 481.406 M 678.326 533.044 C 669.473 534.795, 662.741 540.652, 657.374 551.273 C 652.320 561.275, 649.803 573.162, 649.810 587 C 649.816 600.431, 650.848 605.677, 655.267 614.746 C 663.672 631.997, 679.596 640.956, 692.368 635.620 C 700.435 632.249, 707.595 620.993, 711.525 605.501 C 714.814 592.535, 716.596 570.248, 715.054 561.362 C 712.287 545.419, 703.964 535.954, 690.201 533.099 C 684.321 531.880, 684.220 531.879, 678.326 533.044 M 494.024 540.581 C 469 547.407, 454.464 576.914, 460.487 608.662 C 463.311 623.547, 472.111 636.949, 481.909 641.285 C 491.489 645.524, 503.609 642.887, 510.057 635.160 C 519.308 624.073, 530.043 587.129, 528.699 570.999 C 526.902 549.418, 511.419 535.836, 494.024 540.581 M 669.500 695.719 C 657.886 698.549, 641.793 704.875, 604.500 721.273 C 582.375 731.001, 566.071 735, 548.532 735 C 525.707 735, 507.519 728.802, 479.500 711.475 C 465.156 702.605, 459.988 700.400, 450.181 698.966 C 432.853 696.432, 418.179 702.354, 411.687 714.500 C 408.432 720.589, 408.733 730.769, 412.382 738 C 420.710 754.505, 430.896 762.699, 465.868 781.027 C 500.536 799.196, 508.628 801.345, 542 801.240 C 593.415 801.079, 650.843 790.120, 682 774.523 C 699.720 765.653, 709.857 756.703, 715.312 745.111 C 725.171 724.162, 714.569 702.502, 691.540 696.542 C 685.927 695.090, 673.924 694.641, 669.500 695.719" stroke="none" fill="#fed500" fill-rule="evenodd"/><path d="M 506 10.625 C 485.026 12.415, 466.813 14.586, 452.198 17.037 C 311.705 40.603, 187.466 119.421, 104.527 237.603 C 85.984 264.024, 64.212 303.332, 51.682 333.008 C 31.426 380.982, 18.889 429.522, 12.297 485.500 C 9.768 506.969, 9.776 573.829, 12.309 595.500 C 21.793 676.624, 45.169 746.664, 84.779 812.638 C 109.448 853.726, 135.307 886.414, 169.870 920.203 C 247.757 996.343, 345.360 1046.042, 452.198 1063.963 C 485.092 1069.480, 498.870 1070.500, 540.500 1070.500 C 582.130 1070.500, 595.908 1069.480, 628.802 1063.963 C 776.773 1039.143, 908.209 951.831, 988.862 824.778 C 1032.820 755.532, 1058.657 681.323, 1068.691 595.500 C 1071.224 573.829, 1071.232 506.969, 1068.703 485.500 C 1055.824 376.134, 1016.888 283.903, 948.530 200.831 C 934.423 183.687, 897.313 146.577, 880.169 132.470 C 797.670 64.583, 702.592 24.359, 596.500 12.461 C 582.316 10.871, 518.333 9.572, 506 10.625 M 368.638 176.189 C 362.418 179.610, 357.663 184.951, 353.830 192.824 C 351.030 198.574, 350.051 215.134, 351.990 223.925 C 354.913 237.176, 361.922 254.988, 368.020 264.663 C 379.813 283.373, 393.983 297.380, 407.500 303.687 C 418.959 309.035, 431.584 307.111, 441.877 298.450 C 453.710 288.494, 455.109 266.054, 445.629 238.272 C 442.245 228.353, 431.361 205.191, 425.200 194.794 C 420.651 187.117, 414.920 182.059, 405.485 177.392 C 397.881 173.630, 397.233 173.491, 386.059 173.233 C 374.691 172.970, 374.403 173.019, 368.638 176.189 M 748 199.459 C 706.414 206.684, 677.323 219.922, 654.649 241.936 C 643.028 253.219, 637.679 260.385, 632.111 272.128 C 624.649 287.867, 621.266 300.581, 617.509 327 C 615.043 344.339, 614.034 349.109, 610.973 357.894 C 605.397 373.895, 595.543 385.539, 582.500 391.539 C 573.273 395.783, 547.814 404.321, 536.500 406.964 C 526.125 409.389, 520.001 410.813, 504 414.524 C 492.186 417.264, 481.390 420.243, 467.681 424.546 C 463.380 425.896, 459.423 427, 458.887 427 C 456.136 427, 436.562 435.195, 421.899 442.486 C 392.964 456.873, 369.842 473.392, 341.123 500.194 C 290.514 547.425, 249.454 613.805, 236.088 670 C 231.090 691.012, 229.823 721.461, 233.065 742.648 C 235.445 758.198, 243.614 778.823, 253.362 793.892 C 258.791 802.285, 270.632 814.923, 280.992 823.382 C 285.113 826.747, 291.229 831.975, 294.583 835 C 314.587 853.042, 353.433 874.816, 382 883.998 C 387.225 885.677, 392.400 887.444, 393.500 887.925 C 403.911 892.471, 436.656 900.302, 456.090 902.892 C 460.166 903.435, 470.475 904.919, 479 906.190 C 493.481 908.348, 497.492 908.498, 540 908.463 C 581.553 908.429, 586.801 908.235, 600.500 906.225 C 608.750 905.015, 618.875 903.587, 623 903.052 C 635.808 901.390, 659.398 896.737, 669 893.979 C 672.575 892.952, 678.200 891.338, 681.500 890.392 C 684.800 889.446, 687.950 888.370, 688.500 888 C 689.050 887.630, 692.200 886.534, 695.500 885.562 C 727.456 876.157, 764.334 855.921, 793.825 831.608 C 811.555 816.990, 831.790 796.645, 845.197 779.956 C 852.897 770.370, 866.006 752.136, 870.906 744.195 C 873.517 739.963, 877.235 734.025, 879.168 731 C 886.817 719.031, 902.190 687.370, 910.486 666.500 C 919.938 642.723, 921.845 637.280, 925.556 623.500 C 926.890 618.550, 928.928 611.125, 930.087 607 C 937.295 581.338, 942.651 554.861, 944.451 536 C 944.792 532.425, 945.490 526.800, 946.003 523.500 C 948.228 509.180, 949.704 491.642, 952.017 452.035 C 952.545 442.979, 953.433 433.109, 953.989 430.101 C 955.634 421.206, 955.294 357.147, 953.566 350.235 C 952.778 347.081, 951.402 341.125, 950.510 337 C 942.707 300.925, 918.925 266.552, 883.207 239.722 C 862.749 224.354, 832.537 209.712, 811.500 204.968 C 787.312 199.514, 784.244 199.057, 768.500 198.563 C 760.438 198.310, 752.651 198.650, 748 199.459 M 191.500 295.639 C 185.191 297.351, 177.324 300.213, 175.327 301.521 C 169.064 305.625, 165.998 321.584, 169.447 332.129 C 171.433 338.198, 176.604 346.623, 180.656 350.387 C 184.214 353.692, 201.061 366.544, 215.398 376.890 C 226.440 384.858, 244.380 394.517, 254.794 398.102 C 262.091 400.614, 273.285 401.562, 278.596 400.119 C 288.406 397.453, 295.779 388.526, 296.718 378.179 C 297.869 365.481, 293.244 357.973, 270.180 335.097 C 242.530 307.672, 223.457 296.520, 202.500 295.524 C 197.550 295.288, 192.600 295.340, 191.500 295.639 M 89.429 481.854 C 76.935 486.907, 71 494.866, 71 506.567 C 71 511.944, 71.600 514.483, 74.143 519.857 C 79.642 531.479, 96.282 545.806, 112.824 553.161 C 116.496 554.793, 120.985 556.807, 122.800 557.635 C 126.283 559.225, 134.167 561.820, 142.500 564.120 C 145.613 564.979, 152.596 565.499, 161 565.497 L 174.500 565.495 182.181 561.743 C 190.981 557.445, 195.020 553.201, 198.118 545 C 204.545 527.985, 192.927 511.881, 162.800 496.046 C 140.894 484.532, 124.227 479.931, 105.047 480.104 C 96.844 480.177, 92.321 480.684, 89.429 481.854" stroke="none" fill="#ffda19" fill-rule="evenodd"/><path d="M 376 175.564 C 365.452 178.902, 357.582 186.465, 354.838 195.901 C 352.859 202.702, 353.127 221.014, 355.326 229.326 C 363.508 260.255, 385.520 290.894, 407 301.252 C 422.508 308.730, 439.339 303.190, 446.710 288.182 C 449.337 282.833, 449.494 281.768, 449.392 270 C 449.302 259.553, 448.844 256.022, 446.603 248.500 C 442.496 234.714, 439.289 226.660, 432.362 212.735 C 420.445 188.779, 417.424 185.203, 404 179.166 C 392.681 174.075, 384.165 172.979, 376 175.564 M 753.500 201.047 C 734.369 202.701, 708.068 210.532, 688.695 220.343 C 655.051 237.382, 635.161 260.814, 626.033 294.166 C 624.929 298.200, 622.434 310.950, 620.490 322.500 C 615.930 349.580, 613.919 357.455, 608.934 367.754 C 603.613 378.747, 595.573 386.940, 584.500 392.651 C 574.171 397.978, 550.608 405.584, 526 411.534 C 515.275 414.127, 500.200 417.777, 492.500 419.645 C 452.355 429.384, 420.508 442.794, 391.500 462.177 C 329.949 503.304, 275.971 569.109, 249.602 635.167 C 231.005 681.754, 227.937 724.883, 240.542 762.556 C 249.229 788.522, 259.100 801.946, 287.397 826.277 C 310.621 846.246, 324.799 855.937, 347.115 867.098 C 418.881 902.989, 520.507 916.082, 617.470 901.930 C 668.628 894.462, 715.576 879.592, 749.081 860.242 C 794.249 834.157, 833.344 796.801, 864.980 749.500 C 904.350 690.635, 931.016 617.443, 942.400 537 C 945.529 514.891, 947.447 494.318, 950.185 453.500 C 951.940 427.337, 951.941 351.517, 950.187 343.500 C 939.662 295.400, 909.708 256.045, 862.700 228.556 C 828.106 208.325, 787.533 198.105, 753.500 201.047 M 184.570 299.514 C 175.884 302.617, 173.350 304.987, 171.347 311.879 C 167.940 323.598, 171.867 338.559, 180.732 347.632 C 185.511 352.523, 211.824 372.360, 224.241 380.432 C 241.403 391.588, 259.931 398.928, 271.068 398.983 C 284.950 399.050, 294.253 389.670, 294.385 375.470 C 294.493 363.879, 291.833 359.710, 271.063 338.923 C 247.969 315.810, 234.892 306.313, 217.806 300.243 C 207.065 296.428, 194.007 296.141, 184.570 299.514 M 755.599 303.517 C 716.780 309.816, 695.957 326.396, 685.132 359.624 C 683.541 364.506, 681.043 375.250, 679.579 383.500 C 674.706 410.966, 673.746 415.452, 671.239 422.500 C 664.960 440.145, 651.899 451.758, 634.003 455.606 C 630.278 456.407, 615.965 457.419, 600.500 457.975 C 563.950 459.289, 555.003 460.144, 535.500 464.188 C 469.190 477.938, 390.963 527.756, 343.960 586.167 C 320.949 614.762, 304.191 647.393, 298.039 675.579 C 295.295 688.150, 293.759 705.876, 294.493 716.500 C 296.789 749.748, 306.727 772.778, 327.962 794.058 C 357.248 823.406, 409.952 843.703, 480 852.611 C 496.815 854.749, 549.870 855.629, 568.500 854.079 C 620.426 849.757, 664.155 838.710, 701.569 820.459 C 729.999 806.591, 752.105 789.841, 771.529 767.447 C 806.326 727.330, 828.100 695.210, 840.351 665.926 C 858.042 623.639, 874.525 558.242, 882.483 498.773 C 896.949 390.659, 870.538 321.666, 808.448 305.375 C 800.030 303.167, 795.885 302.712, 781.500 302.419 C 769.906 302.183, 761.669 302.532, 755.599 303.517 M 97.500 481.525 C 96.950 481.727, 94.673 482.361, 92.441 482.933 C 86.256 484.520, 79.298 489.637, 76.229 494.858 C 73.903 498.815, 73.504 500.606, 73.525 507 C 73.546 513.273, 74.017 515.395, 76.404 519.970 C 89.552 545.178, 139.427 568.100, 170.189 563.074 C 188.137 560.142, 197.608 550.548, 197.411 535.500 C 197.267 524.557, 190.923 516.052, 174.994 505.447 C 159.033 494.821, 139.838 486.839, 121.031 483.006 C 112.335 481.234, 100.347 480.480, 97.500 481.525 M 678.326 533.044 C 669.473 534.795, 662.741 540.652, 657.374 551.273 C 652.320 561.275, 649.803 573.162, 649.810 587 C 649.816 600.431, 650.848 605.677, 655.267 614.746 C 663.672 631.997, 679.596 640.956, 692.368 635.620 C 700.435 632.249, 707.595 620.993, 711.525 605.501 C 714.814 592.535, 716.596 570.248, 715.054 561.362 C 712.287 545.419, 703.964 535.954, 690.201 533.099 C 684.321 531.880, 684.220 531.879, 678.326 533.044 M 494.024 540.581 C 469 547.407, 454.464 576.914, 460.487 608.662 C 463.311 623.547, 472.111 636.949, 481.909 641.285 C 491.489 645.524, 503.609 642.887, 510.057 635.160 C 519.308 624.073, 530.043 587.129, 528.699 570.999 C 526.902 549.418, 511.419 535.836, 494.024 540.581 M 669.500 695.719 C 657.886 698.549, 641.793 704.875, 604.500 721.273 C 582.375 731.001, 566.071 735, 548.532 735 C 525.707 735, 507.519 728.802, 479.500 711.475 C 465.156 702.605, 459.988 700.400, 450.181 698.966 C 432.853 696.432, 418.179 702.354, 411.687 714.500 C 408.432 720.589, 408.733 730.769, 412.382 738 C 420.710 754.505, 430.896 762.699, 465.868 781.027 C 500.536 799.196, 508.628 801.345, 542 801.240 C 593.415 801.079, 650.843 790.120, 682 774.523 C 699.720 765.653, 709.857 756.703, 715.312 745.111 C 725.171 724.162, 714.569 702.502, 691.540 696.542 C 685.927 695.090, 673.924 694.641, 669.500 695.719" stroke="none" fill="#060604" fill-rule="evenodd"/><path d="M 369 176.022 C 363.645 178.929, 358.872 183.447, 356.875 187.500 C 356.333 188.600, 356.925 188.150, 358.191 186.500 C 362.184 181.294, 365.322 178.795, 371.500 175.902 C 374.800 174.356, 376.825 173.079, 376 173.064 C 375.175 173.049, 372.025 174.380, 369 176.022 M 394 173.904 C 394.825 174.490, 396.175 174.977, 397 174.985 C 397.825 174.994, 401.313 176.332, 404.750 177.958 C 408.188 179.585, 411 180.686, 411 180.405 C 411 179.614, 398.861 174.185, 395.500 173.473 C 393.221 172.991, 392.860 173.094, 394 173.904 M 416.158 184.865 C 418.719 187.143, 422.518 191.919, 424.600 195.478 C 426.682 199.036, 428.550 201.784, 428.750 201.583 C 428.951 201.382, 427.669 198.806, 425.900 195.859 C 422.360 189.958, 416.608 183.428, 413.500 181.782 C 412.400 181.200, 413.596 182.587, 416.158 184.865 M 353.259 193.750 C 351.341 198.139, 350.307 217.580, 351.706 222.957 C 352.323 225.332, 352.477 222.516, 352.197 213.957 C 351.856 203.507, 352.105 200.573, 353.740 195.750 C 355.955 189.217, 355.701 188.161, 353.259 193.750 M 752 198.882 C 750.075 199.222, 756.328 199.500, 765.896 199.500 C 775.463 199.500, 781.538 199.188, 779.396 198.808 C 774.695 197.972, 756.875 198.020, 752 198.882 M 709.108 209.012 C 703.606 210.990, 700.468 212.875, 705 211.478 C 711.420 209.499, 717.354 207.143, 716 207.109 C 715.175 207.089, 712.073 207.945, 709.108 209.012 M 825.920 210.070 C 828.901 211.128, 831.513 211.821, 831.724 211.609 C 832.191 211.143, 823.082 207.970, 821.572 208.073 C 820.982 208.113, 822.939 209.012, 825.920 210.070 M 437.937 221.250 C 439.874 226.158, 443.995 234.360, 443.421 232.164 C 442.670 229.288, 438.004 219, 437.451 219 C 437.230 219, 437.449 220.012, 437.937 221.250 M 682 221.243 C 680.075 222.385, 674.809 225.763, 670.298 228.749 C 656.703 237.749, 636.429 260.177, 633.460 269.500 C 633.110 270.600, 634.171 269.143, 635.818 266.262 C 645.352 249.583, 662.636 233.335, 683.650 221.294 C 685.768 220.081, 687.050 219.106, 686.500 219.127 C 685.950 219.148, 683.925 220.100, 682 221.243 M 862 226.384 C 862 226.618, 864.362 228.145, 867.250 229.777 C 870.138 231.410, 876.325 235.554, 881 238.987 C 885.675 242.420, 888.600 244.317, 887.500 243.203 C 882.967 238.613, 862 224.784, 862 226.384 M 447.124 244.500 C 447.077 245.050, 447.665 247.750, 448.430 250.500 C 449.195 253.250, 449.827 254.600, 449.834 253.500 C 449.847 251.371, 447.269 242.808, 447.124 244.500 M 901.686 256.313 C 908.389 262.802, 916.439 271.461, 919.575 275.555 C 925.943 283.869, 927.912 285.538, 922.812 278.299 C 918.829 272.644, 899.158 252.069, 893.522 247.662 C 891.310 245.932, 894.984 249.825, 901.686 256.313 M 360.546 250 C 361.997 255.105, 372.445 272.921, 374.864 274.416 C 375.420 274.760, 374.005 272.241, 371.720 268.819 C 369.435 265.396, 365.826 259.200, 363.700 255.048 C 361.574 250.897, 360.155 248.625, 360.546 250 M 450.500 270.500 C 450.500 277.334, 450.806 282.155, 451.180 281.213 C 451.554 280.271, 451.859 275.450, 451.859 270.500 C 451.859 265.550, 451.554 260.729, 451.180 259.787 C 450.806 258.845, 450.500 263.666, 450.500 270.500 M 382.485 284.184 C 384.491 286.760, 388.240 290.509, 390.816 292.515 L 395.500 296.163 391.130 292.201 C 388.727 290.022, 384.978 286.273, 382.799 283.870 L 378.837 279.500 382.485 284.184 M 624.622 291.147 C 621.817 300.503, 619.480 311.813, 620.203 312.536 C 620.464 312.797, 621.249 309.812, 621.948 305.902 C 622.647 301.993, 624.275 295.370, 625.566 291.186 C 626.856 287.003, 627.736 283.403, 627.520 283.187 C 627.304 282.971, 626 286.553, 624.622 291.147 M 448.177 287.807 C 446.595 293.084, 440.912 298.965, 433.784 302.703 C 429.239 305.087, 427.337 305.474, 420.185 305.472 C 413.603 305.470, 412.561 305.650, 415.185 306.338 C 422.757 308.325, 434.140 304.961, 441.877 298.450 C 445.762 295.181, 450.279 287.684, 449.813 285.278 C 449.608 284.214, 448.951 285.230, 448.177 287.807 M 936.841 302 C 939.470 307.225, 942.369 313.300, 943.283 315.500 C 944.197 317.700, 944.686 318.375, 944.369 317 C 943.609 313.700, 935.677 297.049, 933.651 294.500 C 932.776 293.400, 934.212 296.775, 936.841 302 M 398.443 298.355 C 400.555 300.277, 409.340 305.017, 410.717 304.977 C 411.148 304.965, 408.667 303.428, 405.204 301.561 C 401.741 299.695, 398.345 297.793, 397.657 297.334 C 396.969 296.875, 397.323 297.335, 398.443 298.355 M 176.314 300.950 C 174.561 302.019, 172.609 303.930, 171.975 305.196 C 170.948 307.248, 171.078 307.209, 173.161 304.841 C 174.448 303.378, 176.850 301.483, 178.500 300.631 C 180.150 299.778, 181.050 299.064, 180.500 299.044 C 179.950 299.024, 178.066 299.882, 176.314 300.950 M 232.215 305.369 C 236.431 307.772, 241.820 311.187, 244.190 312.959 L 248.500 316.181 245 313.008 C 241.333 309.685, 227.263 301, 225.545 301 C 224.997 301, 227.998 302.966, 232.215 305.369 M 618.562 319.750 C 618.195 322.913, 617.696 327.075, 617.454 329 C 617.080 331.977, 617.142 332.117, 617.870 329.937 C 618.887 326.896, 620.363 314, 619.695 314 C 619.439 314, 618.930 316.587, 618.562 319.750 M 261.890 328 C 279.177 345.508, 288.464 354.534, 285.042 350.500 C 281.417 346.229, 260.267 325.166, 255.420 321 C 253.820 319.625, 256.731 322.775, 261.890 328 M 174.706 342.813 C 176.807 346.693, 180.705 350.836, 186.412 355.252 C 188.806 357.105, 187.567 355.533, 183.421 351.458 C 179.528 347.631, 175.571 343.375, 174.628 342 C 173.192 339.907, 173.205 340.040, 174.706 342.813 M 952.717 355.500 C 952.984 360.450, 953.554 366.750, 953.984 369.500 C 954.673 373.906, 954.778 373.372, 954.868 365 C 954.927 359.518, 954.391 353.597, 953.601 351 C 952.261 346.594, 952.243 346.687, 952.717 355.500 M 290.512 358.205 C 295.435 365.071, 297.214 375.089, 294.954 383.226 C 294.385 385.276, 292.294 389.101, 290.308 391.726 C 288.297 394.385, 287.697 395.614, 288.952 394.501 C 298.473 386.062, 299.492 367.589, 290.967 358 L 287.856 354.500 290.512 358.205 M 191 358.296 C 191 358.864, 202.780 368.119, 206.198 370.235 C 211.141 373.296, 209.206 371.398, 201.750 365.873 C 197.762 362.918, 193.713 359.912, 192.750 359.193 C 191.787 358.475, 191 358.071, 191 358.296 M 602.981 374.030 C 601.205 376.797, 597.221 381.366, 594.126 384.184 C 591.032 387.003, 589.923 388.336, 591.663 387.148 C 595.454 384.559, 602.797 376.476, 605.307 372.129 C 608.180 367.153, 606.527 368.503, 602.981 374.030 M 220.461 380.425 C 222.090 381.793, 225.690 384.073, 228.461 385.491 C 234.046 388.350, 232.803 387.380, 223.628 381.719 C 219.964 379.458, 218.691 378.938, 220.461 380.425 M 573.220 395.248 C 570.315 396.361, 568.119 397.452, 568.338 397.671 C 568.804 398.137, 580 394.063, 580 393.428 C 580 392.771, 578.936 393.056, 573.220 395.248 M 953.722 406 C 953.356 411.775, 952.872 422.800, 952.647 430.500 C 952.328 441.402, 952.431 443.062, 953.111 438 C 954.169 430.132, 955.379 401.488, 954.801 398 C 954.573 396.625, 954.088 400.225, 953.722 406 M 559 400.171 C 555.975 401.270, 553.276 402.392, 553.002 402.666 C 552.211 403.455, 557.751 401.906, 562.841 399.915 C 569.146 397.450, 565.897 397.666, 559 400.171 M 267.750 400.723 C 269.538 400.945, 272.462 400.945, 274.250 400.723 C 276.038 400.502, 274.575 400.320, 271 400.320 C 267.425 400.320, 265.962 400.502, 267.750 400.723 M 522.500 410.086 C 518.100 411.144, 513.150 412.432, 511.500 412.948 C 508.869 413.771, 508.991 413.813, 512.495 413.286 C 518.338 412.408, 534.845 408.191, 532.500 408.175 C 531.400 408.168, 526.900 409.028, 522.500 410.086 M 492.160 417.184 C 489.773 417.717, 488.020 418.353, 488.264 418.597 C 488.781 419.114, 499 417.039, 499 416.417 C 499 415.848, 497.277 416.041, 492.160 417.184 M 449.196 430.165 C 444.628 431.848, 441.056 433.389, 441.256 433.589 C 441.456 433.790, 445.868 432.411, 451.060 430.527 C 456.252 428.642, 459.825 427.101, 459 427.103 C 458.175 427.104, 453.763 428.483, 449.196 430.165 M 404.286 451.553 C 400.868 453.491, 397.817 455.487, 397.506 455.990 C 396.974 456.851, 409.461 449.872, 410.738 448.595 C 411.951 447.383, 410.344 448.119, 404.286 451.553 M 951.360 457 C 951.360 462.225, 951.529 464.363, 951.735 461.750 C 951.941 459.137, 951.941 454.863, 951.735 452.250 C 951.529 449.637, 951.360 451.775, 951.360 457 M 377.837 469.160 C 357.229 484.385, 327.923 511.657, 312.384 530.069 C 303.400 540.714, 289.208 558.870, 287.815 561.500 C 286.093 564.750, 288.245 562.213, 296.298 551.500 C 318.731 521.657, 349.214 491.269, 378 470.055 C 387.482 463.067, 387.565 463, 386.753 463 C 386.434 463, 382.422 465.772, 377.837 469.160 M 78.745 488.334 C 74.707 492.142, 70.985 498.840, 71.033 502.210 C 71.052 503.554, 71.827 502.295, 72.908 499.165 C 74.059 495.833, 76.376 492.173, 79.083 489.415 C 84.147 484.256, 83.901 483.471, 78.745 488.334 M 948.328 497.500 C 948.333 501.350, 948.513 502.802, 948.730 500.728 C 948.946 498.653, 948.943 495.503, 948.722 493.728 C 948.501 491.952, 948.324 493.650, 948.328 497.500 M 171.380 501.236 C 173.497 502.659, 184.096 510.533, 187.664 513.333 C 188.949 514.342, 190 514.930, 190 514.641 C 190 513.726, 175.728 502.904, 172.545 501.406 C 170.834 500.600, 170.324 500.526, 171.380 501.236 M 73.009 517.595 C 72.993 519.554, 80.639 530.410, 84.564 534 C 87.844 537.001, 87.704 536.718, 83.581 532.015 C 80.936 528.999, 77.478 524.274, 75.896 521.515 C 74.313 518.757, 73.015 516.993, 73.009 517.595 M 199.161 535.500 C 199.057 537.700, 198.741 540.625, 198.458 542 L 197.944 544.500 199.019 542.036 C 199.610 540.680, 199.927 537.755, 199.722 535.536 L 199.349 531.500 199.161 535.500 M 93.048 541 C 96.581 544.373, 109.380 552.223, 113.500 553.544 C 114.600 553.896, 112.146 552.309, 108.048 550.016 C 100.119 545.582, 96.072 542.962, 91.941 539.589 C 90.534 538.440, 91.032 539.075, 93.048 541 M 195.032 549.646 C 193.708 552.142, 191.021 555.356, 189.062 556.787 C 184.691 559.981, 182.916 561.603, 185 560.499 C 189.247 558.250, 193.230 554.463, 195.599 550.421 C 197.053 547.940, 198.062 545.729, 197.841 545.508 C 197.621 545.287, 196.356 547.149, 195.032 549.646 M 940.570 556.704 C 940.201 559.342, 939.637 563.075, 939.317 565 C 938.997 566.925, 939.001 568.256, 939.326 567.958 C 940.122 567.229, 942.303 552.969, 941.710 552.376 C 941.452 552.118, 940.939 554.066, 940.570 556.704 M 178 562.684 C 174.185 564.435, 154.840 565.102, 145.500 563.806 C 141.358 563.231, 140.929 563.304, 143 564.232 C 144.461 564.886, 151.528 565.365, 160 565.384 C 172.780 565.412, 175.034 565.162, 179 563.278 C 181.475 562.103, 183.050 561.127, 182.500 561.110 C 181.950 561.092, 179.925 561.801, 178 562.684 M 937.577 572.750 C 936.039 581.687, 935.956 582.579, 936.857 580.500 C 937.880 578.137, 939.323 569, 938.673 569 C 938.425 569, 937.932 570.688, 937.577 572.750 M 278.179 575.750 C 273.587 582.528, 267.595 593, 268.309 593 C 268.584 593, 270.266 590.413, 272.046 587.250 C 273.826 584.087, 277.036 578.913, 279.179 575.750 C 281.321 572.587, 282.850 570, 282.575 570 C 282.300 570, 280.321 572.587, 278.179 575.750 M 256.948 613.103 C 254.707 617.560, 253.035 621.368, 253.233 621.566 C 253.430 621.763, 255.480 618.117, 257.788 613.462 C 260.097 608.808, 261.769 605, 261.504 605 C 261.239 605, 259.189 608.647, 256.948 613.103 M 923.053 629.148 C 921.744 633.742, 920.450 638.175, 920.177 639 C 919.905 639.825, 919.980 640.236, 920.345 639.913 C 921.269 639.094, 926.090 622.769, 925.728 621.683 C 925.565 621.195, 924.361 624.554, 923.053 629.148 M 917.615 645.615 C 915.525 651.751, 916.188 652.415, 918.462 646.462 C 919.424 643.941, 919.990 641.656, 919.718 641.385 C 919.447 641.114, 918.501 643.017, 917.615 645.615 M 233.632 680.090 C 233.284 681.828, 233.055 684.656, 233.122 686.375 C 233.195 688.235, 233.594 687.100, 234.108 683.570 C 235.028 677.260, 234.691 674.795, 233.632 680.090 M 899.292 691.041 C 896.474 697.069, 894.386 702, 894.654 702 C 895.317 702, 905.228 680.895, 904.777 680.443 C 904.578 680.245, 902.110 685.014, 899.292 691.041 M 231.374 714.500 C 231.376 720.550, 231.541 722.896, 231.740 719.713 C 231.939 716.531, 231.937 711.581, 231.736 708.713 C 231.535 705.846, 231.372 708.450, 231.374 714.500 M 884.938 719.149 C 883.181 722.642, 879.866 728.425, 877.570 732 C 872.045 740.603, 871.813 741, 872.299 741 C 873.676 741, 889.449 714.116, 888.581 713.248 C 888.334 713, 886.694 715.656, 884.938 719.149 M 232.609 738.500 C 233.187 745.293, 237.080 760.995, 239.452 766.103 C 240.319 767.971, 240.764 768.600, 240.440 767.500 C 236.444 753.942, 234.679 747.053, 233.502 740.413 C 232.230 733.243, 232.147 733.064, 232.609 738.500 M 867.163 748.750 C 864.851 752.462, 864.041 754.208, 865.363 752.630 C 867.810 749.708, 872.440 742, 871.748 742 C 871.538 742, 869.475 745.038, 867.163 748.750 M 843.947 780.201 C 825.957 802.428, 795.923 830.615, 774.852 845.047 C 769.984 848.382, 766 851.335, 766 851.610 C 766 851.885, 769.938 849.410, 774.750 846.111 C 797.711 830.368, 826.582 803.198, 845.580 779.456 C 851.941 771.506, 852.314 771, 851.820 771 C 851.586 771, 848.043 775.141, 843.947 780.201 M 251.611 791.250 C 256.873 800.271, 269.209 813.761, 280.992 823.382 C 285.113 826.747, 291.234 831.975, 294.595 835 C 297.955 838.025, 302.908 842.041, 305.602 843.923 C 311.920 848.339, 310.610 846.913, 301.998 840 C 277.247 820.131, 262.315 805.843, 255.229 795.250 C 253.297 792.362, 251.529 790, 251.299 790 C 251.070 790, 251.210 790.563, 251.611 791.250 M 314 849.432 C 314 850.496, 331.282 861.747, 335.250 863.267 C 338.560 864.535, 336.994 863.038, 332.750 860.877 C 330.413 859.687, 325.238 856.514, 321.250 853.826 C 317.262 851.138, 314 849.161, 314 849.432 M 754.500 858.554 C 752.300 859.924, 748.591 862.013, 746.257 863.196 C 743.923 864.380, 742.193 865.526, 742.411 865.744 C 742.915 866.248, 756.011 859.197, 757.964 857.370 C 760.106 855.367, 759.023 855.737, 754.500 858.554 M 716.286 877.279 C 710.669 879.549, 706.244 881.577, 706.453 881.787 C 706.940 882.274, 725.186 875.065, 726.450 873.886 C 727.783 872.643, 727.668 872.681, 716.286 877.279 M 664 894.126 C 659.875 895.183, 655.150 896.470, 653.500 896.987 C 650.577 897.903, 650.590 897.913, 654 897.388 C 659.516 896.538, 670.350 893.842, 672 892.909 C 674.141 891.698, 672.513 891.946, 664 894.126 M 418.500 895.528 C 420.700 896.253, 423.400 896.841, 424.500 896.834 C 425.600 896.827, 424.250 896.195, 421.500 895.430 C 415.244 893.689, 413.130 893.758, 418.500 895.528 M 427 897.396 C 427 897.990, 445.128 901.205, 445.632 900.701 C 445.871 900.462, 442.050 899.531, 437.140 898.633 C 427.456 896.861, 427 896.806, 427 897.396 M 642 899 C 638.626 899.710, 638.608 899.737, 641.500 899.750 C 643.150 899.757, 645.850 899.420, 647.500 899 C 650.162 898.323, 650.218 898.238, 648 898.250 C 646.625 898.257, 643.925 898.595, 642 899 M 450.500 902.057 C 452.700 902.512, 455.625 902.859, 457 902.827 C 458.604 902.791, 458.066 902.473, 455.500 901.943 C 453.300 901.488, 450.375 901.141, 449 901.173 C 447.396 901.209, 447.934 901.527, 450.500 902.057 M 487 907.138 C 490.025 907.609, 496.325 908.202, 501 908.455 L 509.500 908.914 499 907.523 C 487.297 905.973, 477.500 905.659, 487 907.138 M 575 908 L 569.500 908.674 577 908.767 C 581.125 908.818, 585.400 908.473, 586.500 908 C 588.925 906.958, 583.503 906.958, 575 908" stroke="none" fill="#fbd915" fill-rule="evenodd"/></svg>