<svg xmlns="http://www.w3.org/2000/svg" width="1080" height="1080" viewBox="0 0 1080 1080" version="1.1"><path d="M 432 240 C 431.342 241.229, 429.906 242, 428.275 242 C 426.359 242, 424.283 243.447, 420.810 247.205 L 416 252.410 416 269.965 C 416 286.436, 416.123 287.596, 418 288.768 C 419.100 289.455, 420 291.068, 420 292.353 C 420 293.639, 420.900 295.505, 422 296.500 C 423.100 297.495, 424 299.140, 424 300.155 C 424 301.170, 424.918 302.918, 426.040 304.040 C 427.162 305.162, 428.531 307.074, 429.083 308.290 C 432.035 314.795, 434.531 317.928, 447.215 331.052 C 451.050 335.019, 454.775 338, 455.898 338 C 456.987 338, 458.149 338.893, 458.500 340 C 458.984 341.524, 460.013 342, 462.827 342 C 465.436 342, 466.885 341.413, 467.768 340 C 468.626 338.627, 470.100 338, 472.473 338 C 474.864 338, 476.248 337.405, 476.963 336.070 C 477.531 335.008, 479.009 333.996, 480.248 333.820 C 481.916 333.583, 482.587 332.722, 482.837 330.500 C 483.023 328.850, 484.035 326.695, 485.087 325.711 C 487.867 323.111, 487.810 310.841, 484.996 306.226 C 483.898 304.425, 483 301.673, 483 300.111 C 483 298.548, 482.137 296.173, 481.082 294.832 C 480.027 293.491, 478.834 290.618, 478.430 288.447 C 478.026 286.276, 476.864 283.912, 475.848 283.193 C 474.771 282.432, 474 280.668, 474 278.967 C 474 277.362, 473.102 274.575, 472.004 272.774 C 470.906 270.973, 470.006 268.332, 470.004 266.905 C 470.002 265.478, 469.100 263.495, 468 262.500 C 466.900 261.505, 466 259.737, 466 258.573 C 466 256.016, 457.975 247, 455.698 247 C 454.807 247, 453.241 246.102, 452.218 245.003 C 450.921 243.612, 448.460 242.808, 444.093 242.352 C 439.568 241.879, 437.507 241.184, 436.673 239.849 C 435.170 237.441, 433.338 237.500, 432 240 M 717.289 264.867 C 716.096 266.112, 713.334 266.972, 709.002 267.445 C 704.555 267.931, 701.939 268.762, 700.713 270.078 C 699.728 271.135, 697.659 272, 696.116 272 C 694.573 272, 692.495 272.900, 691.500 274 C 690.505 275.100, 688.480 276, 687 276 C 685.520 276, 683.495 276.900, 682.500 278 C 681.505 279.100, 679.876 280, 678.880 280 C 677.885 280, 676.589 280.900, 676 282 C 675.411 283.100, 674.049 284, 672.973 284 C 671.897 284, 670.455 284.900, 669.768 286 C 669.081 287.100, 668.121 288, 667.634 288 C 666.450 288, 649 305.778, 649 306.984 C 649 307.504, 648.100 308.411, 647 309 C 645.900 309.589, 645 310.660, 645 311.380 C 645 312.101, 644.100 313.505, 643 314.500 C 641.900 315.495, 641 317.305, 641 318.520 C 641 319.736, 640.100 321.874, 639 323.273 C 637.636 325.007, 637 327.330, 637 330.579 C 637 333.714, 636.402 336.002, 635.250 337.273 C 633.888 338.775, 633.387 341.633, 632.990 350.177 C 632.570 359.225, 632.175 361.323, 630.740 362.126 C 629.356 362.900, 629 364.474, 629 369.814 C 629 374.440, 628.422 377.614, 627.143 380.015 C 626.121 381.932, 624.973 385.606, 624.592 388.180 C 624.211 390.753, 623.021 393.974, 621.949 395.337 C 620.877 396.700, 620 398.753, 620 399.899 C 620 401.045, 619.100 402.545, 618 403.232 C 616.900 403.919, 616 404.984, 616 405.598 C 616 406.808, 606.170 417, 605.003 417 C 604.612 417, 603.078 418.125, 601.595 419.500 C 600.111 420.875, 598.204 422, 597.356 422 C 596.509 422, 594.671 422.900, 593.273 424 C 591.874 425.100, 589.624 426, 588.273 426 C 586.921 426, 584.671 426.900, 583.273 428 C 581.405 429.470, 579.216 430, 575.020 430 C 570.580 430, 568.907 430.445, 567.500 432 C 566.028 433.627, 564.420 434, 558.880 434 C 553.094 434, 551.910 434.301, 551 436 C 550.090 437.699, 548.906 438, 543.120 438 C 537.580 438, 535.972 438.373, 534.500 440 C 533.052 441.600, 531.420 442, 526.345 442 C 521.376 442, 519.575 442.425, 518.040 443.960 C 516.854 445.146, 513.989 446.187, 510.790 446.596 C 507.656 446.996, 504.771 448.031, 503.711 449.136 C 502.591 450.303, 500.525 451, 498.183 451 C 495.682 451, 493.878 451.662, 492.732 453 C 491.635 454.281, 489.782 455, 487.577 455 C 485.013 455, 483.973 455.510, 483.500 457 C 483.040 458.450, 481.987 459, 479.673 459 C 477.564 459, 476.057 459.679, 475.232 461 C 474.441 462.267, 472.900 463, 471.027 463 C 469.094 463, 467.700 463.692, 467 465 C 466.385 466.150, 464.906 467, 463.522 467 C 462.197 467, 460.505 467.868, 459.762 468.929 C 459.019 469.991, 457.226 471.156, 455.779 471.519 C 454.331 471.883, 452.369 473.039, 451.419 474.090 C 450.468 475.140, 448.876 476, 447.880 476 C 446.885 476, 445.589 476.900, 445 478 C 444.411 479.100, 443.154 480, 442.205 480 C 441.257 480, 439.919 480.900, 439.232 482 C 438.545 483.100, 437.487 484, 436.880 484 C 436.274 484, 433.465 485.888, 430.639 488.195 C 423.256 494.221, 371.538 546.118, 369.999 549.044 C 369.289 550.395, 368.099 551.860, 367.354 552.300 C 366.609 552.740, 366 553.896, 366 554.869 C 366 555.843, 364.987 557.605, 363.750 558.786 C 359.205 563.122, 358 564.704, 358 566.334 C 358 567.250, 357.147 568.853, 356.105 569.895 C 354.204 571.796, 352.407 574.794, 349.671 580.628 C 348.864 582.348, 347.708 584.062, 347.102 584.437 C 346.496 584.812, 346 585.904, 346 586.865 C 346 587.825, 344.875 590.136, 343.500 592 C 342.125 593.864, 341 596.365, 341 597.559 C 341 598.753, 340.100 600.874, 339 602.273 C 337.900 603.671, 337 606.107, 337 607.685 C 337 609.318, 336.138 611.294, 335 612.268 C 333.861 613.243, 333 615.218, 333 616.855 C 333 618.437, 332.100 620.874, 331 622.273 C 329.900 623.671, 328.990 626.319, 328.978 628.158 C 328.966 629.996, 328.076 632.625, 327 634 C 325.635 635.746, 325.038 638.084, 325.022 641.750 C 325.006 645.526, 324.474 647.526, 323.128 648.872 C 321.589 650.411, 321.125 652.999, 320.525 663.403 C 320.024 672.089, 319.356 676.501, 318.398 677.460 C 316.498 679.359, 316.467 692.313, 318.358 693.882 C 319.263 694.633, 319.950 698.715, 320.419 706.122 C 320.928 714.167, 321.658 718.234, 323.061 720.853 C 324.128 722.843, 325 725.659, 325 727.113 C 325 728.566, 325.646 730.291, 326.436 730.947 C 327.225 731.602, 328.173 733.513, 328.542 735.193 C 329.283 738.563, 336.490 749.746, 339.250 751.807 C 340.212 752.525, 341 753.584, 341 754.160 C 341 754.735, 343.025 757.458, 345.500 760.211 C 347.975 762.964, 350 765.618, 350 766.108 C 350 766.599, 350.563 767.014, 351.250 767.031 C 351.938 767.048, 355.606 769.973, 359.403 773.531 C 363.199 777.089, 366.687 780, 367.154 780 C 367.620 780, 369.749 781.800, 371.884 784 C 374.019 786.200, 376.160 788, 376.642 788 C 377.124 788, 378.081 788.900, 378.768 790 C 379.455 791.100, 380.672 792, 381.473 792 C 382.274 792, 383.411 792.900, 384 794 C 384.589 795.100, 385.885 796, 386.880 796 C 387.876 796, 389.505 796.900, 390.500 798 C 391.495 799.100, 393.070 800, 394 800 C 394.930 800, 396.505 800.900, 397.500 802 C 398.495 803.100, 400.295 804, 401.500 804 C 402.705 804, 404.505 804.900, 405.500 806 C 406.495 807.100, 408.348 808, 409.616 808 C 410.884 808, 412.727 808.837, 413.711 809.859 C 414.695 810.882, 416.830 812.038, 418.455 812.430 C 420.081 812.821, 422.019 814.009, 422.762 815.071 C 423.732 816.456, 425.298 817, 428.316 817 C 431.436 817, 432.841 817.515, 433.768 819 C 434.715 820.517, 436.100 821, 439.500 821 C 442.900 821, 444.285 821.483, 445.232 823 C 446.195 824.541, 447.564 825, 451.202 825 C 454.516 825, 456.455 825.559, 457.711 826.876 C 458.927 828.151, 461.391 828.902, 465.400 829.221 C 469.016 829.508, 471.726 830.267, 472.400 831.182 C 473.193 832.259, 476.398 832.851, 483.884 833.304 C 491.215 833.748, 494.778 834.394, 496.003 835.503 C 497.459 836.820, 502.375 837.174, 526.518 837.700 C 552.757 838.271, 555.438 838.488, 556.872 840.163 C 558.257 841.781, 560.091 842, 572.263 842 C 584.267 842, 586.437 841.749, 588.790 840.085 C 591.124 838.435, 593.914 838.095, 608.912 837.631 C 620.495 837.273, 626.565 836.704, 627.041 835.934 C 627.952 834.460, 634.939 833.100, 641.890 833.044 C 645.786 833.012, 647.626 832.526, 648.531 831.289 C 649.448 830.034, 651.663 829.471, 656.835 829.179 C 662.132 828.880, 664.315 828.310, 665.599 826.890 C 666.814 825.548, 668.671 825, 672 825 C 675.420 825, 677.180 824.458, 678.500 823 C 679.777 821.589, 681.580 821, 684.620 821 C 687.906 821, 689.184 820.525, 690 819 C 690.806 817.493, 692.094 817, 695.221 817 C 698.032 817, 700.077 816.337, 701.558 814.945 C 702.761 813.815, 704.922 812.765, 706.360 812.612 C 707.798 812.459, 709.824 811.564, 710.863 810.624 C 711.902 809.684, 714.363 808.653, 716.333 808.333 C 718.303 808.014, 720.678 806.908, 721.612 805.876 C 722.546 804.844, 724.070 804, 725 804 C 725.930 804, 727.505 803.100, 728.500 802 C 729.495 800.900, 731.124 800, 732.120 800 C 733.115 800, 734.411 799.100, 735 798 C 735.589 796.900, 736.929 796, 737.978 796 C 739.028 796, 740.481 795.212, 741.209 794.250 C 741.936 793.288, 743.259 792.050, 744.149 791.500 C 749.908 787.942, 757.101 782.539, 760.711 779.059 C 763.028 776.827, 765.282 775, 765.721 775 C 766.160 775, 767.081 774.100, 767.768 773 C 768.455 771.900, 769.624 771, 770.366 771 C 771.854 771, 787.627 755.025, 790.562 750.545 C 791.579 748.994, 795.918 744.126, 800.205 739.728 C 804.492 735.330, 808 731.187, 808 730.521 C 808 729.855, 808.860 728.532, 809.910 727.581 C 810.961 726.631, 812.094 724.761, 812.429 723.426 C 812.764 722.092, 813.705 721, 814.519 721 C 815.334 721, 816 720.325, 816 719.500 C 816 718.675, 816.835 717.165, 817.855 716.145 C 818.876 715.124, 820.009 713.099, 820.374 711.645 C 820.739 710.190, 821.696 709, 822.500 709 C 823.304 709, 824.270 707.763, 824.645 706.250 C 825.021 704.737, 826.061 702.375, 826.955 701 C 829.701 696.776, 830.913 694.627, 832.383 691.372 C 833.160 689.652, 834.257 687.959, 834.821 687.611 C 835.385 687.262, 836.152 685.586, 836.525 683.887 C 836.898 682.187, 838.058 679.942, 839.102 678.898 C 840.146 677.854, 841 675.936, 841 674.635 C 841 673.334, 841.900 671.126, 843 669.727 C 844.100 668.329, 845 666.079, 845 664.727 C 845 663.376, 845.900 661.126, 847 659.727 C 848.100 658.329, 849 656.088, 849 654.747 C 849 653.407, 849.900 651.495, 851 650.500 C 852.100 649.505, 853 647.809, 853 646.731 C 853 645.654, 853.869 643.136, 854.931 641.136 C 855.993 639.136, 857.130 635.856, 857.458 633.847 C 857.786 631.837, 858.681 629.953, 859.448 629.659 C 860.275 629.341, 861.123 626.864, 861.536 623.562 C 861.918 620.503, 862.556 618, 862.955 618 C 864.146 618, 866 613.116, 866 609.977 C 866 608.366, 866.898 605.575, 867.996 603.774 C 869.275 601.677, 869.994 598.731, 869.996 595.579 C 869.999 592.299, 870.584 590.012, 871.750 588.724 C 873.005 587.337, 873.661 584.379, 874.067 578.265 C 874.467 572.257, 875.089 569.408, 876.172 568.616 C 877.320 567.777, 877.836 564.861, 878.210 557.088 C 878.575 549.500, 879.112 546.389, 880.194 545.592 C 881.340 544.748, 881.819 541.012, 882.304 529.117 C 882.796 517.061, 883.278 513.351, 884.531 511.965 C 885.927 510.423, 886.207 504.571, 886.724 466.111 C 887.276 424.984, 887.440 421.912, 889.158 420.357 C 890.804 418.868, 891 416.954, 891 402.395 C 891 388.025, 890.797 385.986, 889.281 385.137 C 887.927 384.379, 887.411 382.118, 886.853 374.497 C 886.392 368.193, 885.627 364.240, 884.657 363.159 C 883.839 362.247, 882.837 359.709, 882.430 357.520 C 882.024 355.331, 880.862 352.181, 879.849 350.520 C 878.836 348.859, 878.006 346.782, 878.004 345.905 C 878.002 345.028, 877.100 343.495, 876 342.500 C 874.883 341.489, 874 339.420, 874 337.814 C 874 336.213, 873.352 334.688, 872.538 334.376 C 871.734 334.068, 870.794 332.925, 870.448 331.837 C 869.251 328.066, 862.454 319.665, 853.066 310.356 C 847.877 305.210, 843.121 301, 842.496 301 C 841.872 301, 840.382 299.875, 839.187 298.500 C 837.991 297.125, 836.443 296, 835.747 296 C 835.051 296, 833.919 295.100, 833.232 294 C 832.545 292.900, 831.117 292, 830.059 292 C 829.001 292, 827.849 291.100, 827.500 290 C 827.110 288.771, 825.987 288, 824.588 288 C 823.335 288, 821.495 287.100, 820.500 286 C 819.505 284.900, 817.864 284, 816.853 284 C 815.843 284, 814.455 283.100, 813.768 282 C 813.015 280.795, 811.436 280, 809.795 280 C 808.094 280, 806.668 279.249, 806 278 C 805.304 276.699, 803.906 276, 802 276 C 800.094 276, 798.696 275.301, 798 274 C 797.317 272.723, 795.906 272, 794.100 272 C 792.543 272, 790.139 271.110, 788.756 270.023 C 787.309 268.884, 783.842 267.764, 780.580 267.381 C 776.546 266.906, 774.632 266.181, 773.924 264.857 C 772.993 263.118, 771.218 263, 746.004 263 C 721.021 263, 718.949 263.135, 717.289 264.867 M 731.500 340 C 729.198 341.112, 725.328 341.947, 722.385 341.966 C 718.823 341.990, 716.498 342.607, 714.727 344 C 713.329 345.100, 711.313 346, 710.247 346 C 709.182 346, 707.495 346.900, 706.500 348 C 705.505 349.100, 704.154 350, 703.498 350 C 701.328 350, 687.416 363.114, 686.490 366.033 C 686.178 367.013, 685.266 368.068, 684.462 368.376 C 683.658 368.685, 683 369.851, 683 370.969 C 683 372.086, 682.086 373.914, 680.969 375.031 C 679.852 376.148, 678.665 378.511, 678.331 380.281 C 677.998 382.052, 677.074 384.253, 676.278 385.172 C 675.482 386.092, 674.596 388.792, 674.310 391.172 C 674.024 393.553, 672.937 397.330, 671.895 399.566 C 670.718 402.091, 669.992 405.879, 669.978 409.566 C 669.964 413.301, 669.223 417.116, 667.978 419.859 C 666.602 422.891, 665.998 426.392, 665.993 431.359 C 665.988 436.803, 665.515 439.213, 664 441.500 C 662.907 443.150, 662.010 445.093, 662.007 445.817 C 662 447.125, 657.903 453.032, 654.966 455.967 C 652.431 458.501, 645.483 463, 644.104 463 C 643.395 463, 641.671 463.900, 640.273 465 C 637.868 466.892, 636.180 467.002, 609.115 467.044 C 585.446 467.080, 579.809 467.361, 576.500 468.670 C 574.300 469.540, 569.350 470.533, 565.500 470.876 C 561.330 471.248, 557.500 472.207, 556.027 473.250 C 554.668 474.212, 551.961 475, 550.013 475 C 548.064 475, 544.902 475.834, 542.985 476.853 C 541.068 477.873, 537.900 479.002, 535.944 479.362 C 533.988 479.723, 530.630 480.914, 528.482 482.009 C 526.335 483.104, 523.731 484, 522.696 484 C 521.662 484, 519.671 484.900, 518.273 486 C 516.874 487.100, 515.074 488, 514.273 488 C 513.471 488, 511.671 488.900, 510.273 490 C 508.874 491.100, 506.960 492, 506.018 492 C 505.076 492, 503.268 492.900, 502 494 C 500.732 495.100, 498.933 496, 498.002 496 C 497.071 496, 495.495 496.900, 494.500 498 C 493.505 499.100, 491.951 500, 491.048 500 C 490.146 500, 488.528 500.677, 487.453 501.504 C 483.246 504.743, 476.445 508.965, 475.405 508.982 C 474.803 508.992, 473.495 509.900, 472.500 511 C 471.505 512.100, 470.071 513, 469.314 513 C 468.557 513, 467.685 513.658, 467.376 514.462 C 467.068 515.266, 465.846 516.231, 464.662 516.607 C 463.477 516.983, 460.198 519.138, 457.375 521.395 C 454.552 523.653, 450.990 526.400, 449.459 527.500 C 446.766 529.435, 442.333 532.904, 438.597 536 C 433.719 540.042, 404 570.242, 404 571.157 C 404 571.734, 401.170 575.648, 397.711 579.853 C 394.252 584.059, 390.859 588.625, 390.172 590 C 388.093 594.154, 386.404 596.893, 384.779 598.743 C 383.931 599.709, 382.941 601.471, 382.580 602.658 C 382.219 603.844, 381.266 605.068, 380.462 605.376 C 379.658 605.685, 379 607.059, 379 608.430 C 379 609.800, 378.152 611.727, 377.116 612.711 C 376.081 613.695, 374.927 615.931, 374.552 617.681 C 374.178 619.430, 373.237 621.388, 372.462 622.031 C 371.687 622.675, 370.761 624.843, 370.405 626.850 C 370.048 628.858, 368.911 631.903, 367.878 633.618 C 366.845 635.333, 366 637.836, 366 639.180 C 366 640.524, 365.100 643.487, 364 645.764 C 362.564 648.737, 361.998 651.960, 361.994 657.202 C 361.990 661.720, 361.419 665.591, 360.494 667.364 C 358.354 671.467, 358.359 693.223, 360.500 695 C 361.620 695.930, 362.002 698.430, 362.007 704.872 C 362.012 711.800, 362.405 714.091, 364 716.500 C 365.093 718.150, 365.990 720.452, 365.993 721.615 C 365.997 722.778, 366.900 724.874, 368 726.273 C 369.100 727.671, 370 729.275, 370 729.836 C 370 730.398, 370.579 731.452, 371.286 732.179 C 371.993 732.905, 373.568 735.075, 374.785 737 C 376.002 738.925, 377.786 741.735, 378.749 743.244 C 379.712 744.753, 381.063 745.990, 381.750 745.994 C 382.438 745.997, 383.002 746.337, 383.005 746.750 C 383.023 749.590, 407.647 771, 410.895 771 C 411.332 771, 412.505 771.900, 413.500 773 C 414.495 774.100, 415.828 775, 416.461 775 C 417.094 775, 419.136 776.125, 421 777.500 C 422.864 778.875, 425.018 780, 425.787 780 C 426.555 780, 428.329 780.900, 429.727 782 C 431.126 783.100, 433.376 784, 434.727 784 C 436.079 784, 438.329 784.900, 439.727 786 C 441.238 787.188, 443.784 788, 446 788 C 448.216 788, 450.762 788.812, 452.273 790 C 453.810 791.209, 456.334 792.001, 458.658 792.004 C 460.771 792.006, 463.973 792.906, 465.774 794.004 C 467.756 795.212, 470.811 796, 473.513 796 C 475.969 796, 480.275 796.873, 483.083 797.939 C 485.890 799.006, 491.857 800.190, 496.343 800.569 C 500.830 800.949, 505.736 801.887, 507.247 802.654 C 508.758 803.421, 515.733 804.482, 522.747 805.013 C 529.761 805.543, 539.100 806.353, 543.500 806.813 C 549.221 807.410, 552.497 807.295, 555 806.409 C 556.968 805.712, 566.030 804.934, 575.709 804.631 C 587.812 804.253, 593.746 803.667, 595.709 802.655 C 597.244 801.864, 603 800.882, 608.500 800.473 C 615.151 799.979, 619.667 799.105, 621.985 797.865 C 624.357 796.596, 627.551 795.998, 631.985 795.993 C 636.804 795.989, 639.281 795.470, 641.500 794 C 643.331 792.787, 646.192 792.011, 648.842 792.007 C 651.662 792.002, 654.076 791.299, 655.727 790 C 657.267 788.788, 659.784 788, 662.111 788 C 664.223 788, 667.425 787.102, 669.226 786.004 C 671.027 784.906, 673.677 784.006, 675.115 784.004 C 676.553 784.002, 678.803 783.170, 680.115 782.155 C 681.427 781.140, 683.999 780.019, 685.831 779.664 C 687.663 779.308, 690.311 778.114, 691.716 777.009 C 693.121 775.904, 694.926 775, 695.727 775 C 696.529 775, 698.329 774.100, 699.727 773 C 701.126 771.900, 702.884 771, 703.635 771 C 704.386 771, 705.900 770.100, 707 769 C 708.100 767.900, 709.800 767, 710.778 767 C 711.756 767, 713.287 766.212, 714.181 765.250 C 715.074 764.288, 717.435 762.375, 719.427 761 C 723.210 758.387, 725.525 756.493, 733 749.893 C 740.860 742.952, 746.091 737.357, 754.682 726.701 C 757.697 722.961, 761.365 718.589, 762.832 716.984 C 766.756 712.695, 770 708.309, 770 707.293 C 770 706.804, 771.800 704.530, 774 702.240 C 776.200 699.951, 778.007 697.722, 778.015 697.289 C 778.024 696.855, 779.613 694.250, 781.547 691.500 C 787.648 682.825, 790 679.072, 790 678.013 C 790 677.449, 791.125 676.009, 792.500 674.813 C 793.875 673.618, 795 671.665, 795 670.475 C 795 669.284, 795.855 667.536, 796.901 666.590 C 797.947 665.643, 799.084 663.367, 799.428 661.531 C 799.773 659.695, 800.675 657.955, 801.433 657.664 C 802.191 657.373, 803.129 655.642, 803.517 653.818 C 803.905 651.993, 804.886 649.747, 805.696 648.828 C 806.506 647.908, 807.413 645.339, 807.711 643.118 C 808.009 640.898, 809.096 638.318, 810.126 637.386 C 811.247 636.372, 812 634.345, 812 632.345 C 812 630.505, 812.378 629, 812.839 629 C 814.148 629, 816 624.230, 816 620.861 C 816 619.186, 816.900 616.671, 818 615.273 C 819.340 613.569, 820.002 611.208, 820.007 608.115 C 820.011 605.193, 820.742 602.400, 822 600.500 C 823.130 598.794, 823.999 595.775, 824.015 593.500 C 824.031 591.300, 824.924 587.560, 826 585.189 C 827.076 582.818, 828.261 577.868, 828.633 574.189 C 829.004 570.510, 829.912 566.569, 830.651 565.431 C 831.389 564.293, 832.257 560.468, 832.580 556.931 C 832.903 553.394, 834.030 548.392, 835.084 545.815 C 836.249 542.965, 837 538.744, 837 535.040 C 837 531.513, 837.842 526.555, 839 523.260 C 840.510 518.964, 841 515.006, 841 507.113 C 841 498.823, 841.340 496.282, 842.641 494.844 C 844.045 493.293, 844.355 489.256, 844.785 466.925 C 845.154 447.732, 844.939 438.977, 843.974 433.864 C 843.253 430.039, 842.288 426.678, 841.831 426.396 C 841.374 426.113, 841 422.772, 841 418.971 C 841 413.914, 840.464 411.106, 839 408.500 C 837.900 406.542, 837 403.582, 837 401.924 C 837 400.265, 835.875 396.795, 834.500 394.212 C 833.125 391.629, 832 388.780, 832 387.880 C 832 386.981, 831.369 385.721, 830.598 385.081 C 829.827 384.442, 828.900 382.737, 828.538 381.294 C 827.677 377.865, 825.103 374.476, 816 364.786 C 809.421 357.783, 799.711 350, 797.554 350 C 797.148 350, 795.671 349.100, 794.273 348 C 792.874 346.900, 790.889 346, 789.862 346 C 788.834 346, 786.314 345.100, 784.261 344 C 782.141 342.863, 778.580 341.991, 776.015 341.978 C 773.532 341.966, 769.538 341.066, 767.141 339.978 C 760.828 337.113, 737.446 337.128, 731.500 340 M 276.571 342.674 C 272.866 343.714, 267.240 350.915, 266.553 355.495 C 265.844 360.220, 266.600 364.686, 268.500 367 C 269.177 367.825, 270 369.625, 270.329 371 C 271.087 374.170, 280.647 384, 282.972 384 C 283.666 384, 285.981 385.800, 288.116 388 C 290.251 390.200, 292.432 392, 292.964 392 C 293.495 392, 294.411 392.900, 295 394 C 295.589 395.100, 296.939 396, 298 396 C 299.061 396, 300.411 396.900, 301 398 C 301.589 399.100, 302.704 400, 303.478 400 C 304.253 400, 305.475 400.827, 306.193 401.838 C 306.912 402.849, 308.684 403.970, 310.131 404.327 C 311.577 404.685, 312.998 405.883, 313.287 406.989 C 313.627 408.290, 314.649 409, 316.184 409 C 317.488 409, 319.326 409.900, 320.268 411 C 321.268 412.168, 323.218 413, 324.955 413 C 326.906 413, 328.298 413.688, 329 415 C 329.976 416.824, 331.094 417, 341.671 417 C 352.822 417, 353.362 416.901, 355.635 414.448 C 356.936 413.045, 358 410.799, 358 409.457 C 358 408.100, 358.888 406.463, 360 405.768 C 361.100 405.081, 362 403.780, 362 402.876 C 362 401.973, 361.100 400.998, 360 400.710 C 358.516 400.322, 358 399.346, 358 396.928 C 358 395.135, 357.382 392.955, 356.626 392.084 C 353.060 387.972, 343.685 379, 342.955 379 C 342.504 379, 341.830 378.040, 341.458 376.867 C 340.706 374.500, 325.875 359, 324.361 359 C 323.834 359, 321.530 357.200, 319.240 355 C 316.951 352.800, 314.176 351, 313.074 351 C 311.972 351, 310.622 350.162, 310.073 349.137 C 309.438 347.950, 307.532 347.066, 304.823 346.703 C 302.484 346.389, 300.010 345.366, 299.324 344.429 C 298.327 343.065, 296.125 342.666, 288.289 342.429 C 282.905 342.265, 277.632 342.376, 276.571 342.674 M 206.130 496.056 C 197.328 496.772, 196.585 497.009, 193.880 499.971 C 192.102 501.916, 191 504.227, 191 506.005 C 191 507.843, 190.185 509.477, 188.750 510.518 L 186.500 512.149 188.750 513.697 C 190.483 514.889, 191 516.213, 191 519.463 C 191 523.355, 191.550 524.235, 198.117 530.841 C 202.031 534.778, 206.065 538, 207.082 538 C 208.098 538, 209.411 538.900, 210 540 C 210.642 541.200, 212.094 542, 213.629 542 C 215.346 542, 216.359 542.657, 216.710 544 C 217.103 545.502, 218.074 546, 220.608 546 C 222.900 546, 224.384 546.642, 225.232 548 C 226.179 549.515, 227.574 550.003, 230.991 550.014 C 236.934 550.032, 240 550.917, 240 552.617 C 240 553.734, 242.916 554, 255.138 554 L 270.276 554 274.616 549.250 C 277.469 546.127, 278.963 543.571, 278.978 541.789 C 278.990 540.298, 279.981 538.164, 281.181 537.046 L 283.362 535.014 281.305 532.757 C 280.173 531.516, 278.946 528.814, 278.579 526.752 C 278.094 524.037, 277.145 522.609, 275.132 521.568 C 273.604 520.778, 271.770 519.427, 271.055 518.566 C 270.340 517.705, 268.926 517, 267.913 517 C 266.899 517, 265.589 516.100, 265 515 C 264.411 513.900, 263.061 513, 262 513 C 260.939 513, 259.589 512.100, 259 511 C 258.381 509.842, 256.906 509, 255.500 509 C 254.094 509, 252.619 508.158, 252 507 C 251.249 505.597, 249.906 505, 247.500 505 C 245.176 505, 243.748 504.398, 243.072 503.134 C 242.395 501.869, 240.563 501.098, 237.386 500.740 C 234.740 500.442, 232.335 499.564, 231.865 498.724 C 231.332 497.772, 228.626 496.979, 224.342 496.520 C 220.662 496.126, 217.167 495.689, 216.576 495.549 C 215.984 495.409, 211.283 495.637, 206.130 496.056 M 665.250 540.863 C 663.462 542.394, 662 544.340, 662 545.188 C 662 546.036, 661.100 547.874, 660 549.273 C 658.803 550.795, 657.991 553.357, 657.978 555.658 C 657.966 557.771, 657.066 561.462, 655.978 563.859 C 654.348 567.451, 654 570.400, 654 580.609 C 654 587.572, 654.407 593, 654.929 593 C 655.440 593, 656.596 595.540, 657.499 598.644 C 658.854 603.305, 660.280 605.395, 665.686 610.644 C 672.100 616.872, 672.342 617, 677.675 617 C 682.290 617, 683.717 616.518, 687.059 613.833 C 689.226 612.091, 691 609.873, 691 608.904 C 691 607.935, 691.785 606.357, 692.745 605.397 C 694.057 604.086, 694.655 601.201, 695.153 593.791 C 695.581 587.430, 696.381 583.068, 697.408 581.500 C 698.664 579.584, 699 576.243, 699 565.686 C 699 552.738, 698.910 552.168, 696.250 548.229 C 694.737 545.989, 691.751 542.771, 689.612 541.078 C 685.939 538.170, 685.251 538.002, 677.112 538.041 C 669.168 538.078, 668.248 538.297, 665.250 540.863 M 524.352 542.947 C 523.171 543.449, 521.907 544.341, 521.543 544.930 C 521.180 545.518, 520.084 546, 519.109 546 C 516.965 546, 510.696 552.984, 508.403 557.925 C 507.491 559.891, 506.184 562.175, 505.499 563 C 504.814 563.825, 503.955 566.168, 503.589 568.208 C 503.224 570.247, 502.270 573.172, 501.469 574.708 C 499.350 578.770, 499.375 600.546, 501.500 601.362 C 502.325 601.678, 503 602.676, 503 603.579 C 503 606.180, 508.887 614.574, 513.066 617.933 C 516.493 620.687, 517.583 621, 523.745 621 C 530.204 621, 530.785 620.809, 533.617 617.750 C 535.272 615.962, 537.151 613.263, 537.792 611.750 C 538.433 610.237, 539.417 609, 539.979 609 C 540.556 609, 541 606.492, 541 603.235 C 541 599.554, 541.668 596.211, 542.847 593.985 C 543.863 592.068, 544.974 588.081, 545.315 585.124 C 545.656 582.166, 546.625 578.695, 547.468 577.409 C 549.625 574.116, 549.651 558.464, 547.500 557.638 C 546.675 557.322, 546 556.164, 546 555.066 C 546 552.587, 540.351 546, 538.225 546 C 537.363 546, 535.890 545.306, 534.953 544.457 C 532.829 542.536, 527.205 541.734, 524.352 542.947 M 663.885 672.872 C 662.573 673.902, 659.475 675.084, 657 675.500 C 654.525 675.916, 651.427 677.098, 650.115 678.128 C 648.803 679.158, 646.849 680, 645.773 680 C 644.696 680, 642.671 680.900, 641.273 682 C 639.874 683.100, 637.849 684, 636.773 684 C 635.696 684, 633.671 684.900, 632.273 686 C 630.874 687.100, 628.952 688, 628 688 C 627.048 688, 625.126 688.900, 623.727 690 C 622.329 691.100, 620.304 692, 619.227 692 C 618.151 692, 616.126 692.900, 614.727 694 C 613.329 695.100, 611.304 696, 610.227 696 C 609.151 696, 607.121 696.904, 605.717 698.008 C 604.313 699.112, 600.990 700.298, 598.332 700.643 C 595.675 700.987, 592.675 701.988, 591.666 702.866 C 589.395 704.842, 566.072 705.718, 556 704.206 C 546 702.705, 535.755 699.849, 533.115 697.827 C 531.803 696.822, 530.074 696, 529.273 696 C 528.471 696, 526.671 695.100, 525.273 694 C 523.874 692.900, 522.186 692, 521.520 692 C 520.855 692, 519.495 691.100, 518.500 690 C 517.505 688.900, 516.155 688, 515.500 688 C 514.845 688, 513.495 687.100, 512.500 686 C 511.505 684.900, 509.930 684, 509 684 C 508.070 684, 506.495 683.100, 505.500 682 C 504.505 680.900, 503.145 680, 502.480 680 C 501.814 680, 500.044 679.035, 498.545 677.857 C 496.100 675.934, 494.551 675.710, 483.480 675.679 L 471.140 675.644 466.705 679.278 C 462.942 682.362, 462.162 683.639, 461.556 687.706 C 460.285 696.243, 461.301 703.607, 464.120 706.289 C 465.154 707.273, 466 708.757, 466 709.587 C 466 711.187, 475.283 721, 476.797 721 C 477.288 721, 478.505 721.900, 479.500 723 C 480.495 724.100, 481.845 725, 482.500 725 C 483.155 725, 484.505 725.900, 485.500 727 C 486.495 728.100, 488.070 729, 489 729 C 489.930 729, 491.458 729.848, 492.396 730.885 C 493.334 731.922, 495.466 733.043, 497.132 733.376 C 498.799 733.710, 501.311 734.886, 502.716 735.991 C 504.121 737.096, 506.039 738, 506.980 738 C 507.920 738, 509.505 738.900, 510.500 740 C 511.495 741.100, 512.690 742, 513.155 742 C 513.620 742, 514.900 742.900, 516 744 C 517.100 745.100, 519.143 746, 520.540 746 C 521.938 746, 524.300 746.857, 525.790 747.904 C 527.613 749.185, 531.089 750.022, 536.408 750.460 C 540.757 750.819, 545.573 751.762, 547.108 752.556 C 550.800 754.465, 574.977 754.623, 576.850 752.750 C 578.197 751.403, 578.721 751.351, 602 750.240 C 611.296 749.796, 618.382 748.996, 619.704 748.239 C 620.916 747.546, 624.741 746.701, 628.204 746.361 C 631.667 746.022, 635.903 744.901, 637.618 743.872 C 639.333 742.842, 642.265 742, 644.133 742 C 646.001 742, 649.209 741.100, 651.261 740 C 653.314 738.900, 656.284 738, 657.862 738 C 659.439 738, 661.803 737.159, 663.115 736.130 C 664.427 735.102, 666.931 733.948, 668.681 733.566 C 670.430 733.184, 672.374 732.254, 673 731.500 C 673.626 730.746, 675.410 729.849, 676.965 729.508 C 678.520 729.166, 680.584 728.012, 681.551 726.943 C 682.519 725.874, 683.859 725, 684.529 725 C 686.653 725, 697.891 713.286, 698.602 710.332 C 698.977 708.774, 700.120 705.830, 701.142 703.790 C 704.918 696.249, 702.748 688.018, 694.946 680.296 C 692.610 677.984, 689.461 675.821, 687.947 675.488 C 686.434 675.156, 683.481 674.010, 681.386 672.942 C 676.271 670.334, 667.164 670.298, 663.885 672.872" stroke="none" fill="#000000" fill-rule="evenodd"/><path d="M 736.225 257.094 C 735.296 257.421, 739.686 257.779, 745.980 257.889 C 752.274 258, 757.176 257.843, 756.873 257.540 C 756.095 256.762, 738.263 256.377, 736.225 257.094 M 654.971 293.750 L 648.500 300.500 655.250 294.029 C 658.962 290.470, 662 287.432, 662 287.279 C 662 286.543, 660.982 287.480, 654.971 293.750 M 729.500 343.860 C 718.056 346.054, 712.128 348.323, 704 353.621 C 696.675 358.396, 693.741 361.287, 688.876 368.518 C 681.041 380.165, 675.966 394.649, 672.411 415.500 C 671.661 419.900, 670.378 426.425, 669.559 430 C 668.740 433.575, 668.054 437.744, 668.035 439.265 C 667.996 442.365, 663.339 451.134, 659.621 455.109 C 655.005 460.043, 648.351 464.950, 642.872 467.458 C 636.563 470.347, 624.050 472.034, 618.916 470.688 C 614.493 469.529, 586.270 470.425, 578.500 471.971 C 557.910 476.069, 543.473 479.915, 532.815 484.142 C 530.238 485.164, 527.538 486, 526.816 486 C 524.563 486, 490.473 503.607, 481.472 509.419 C 455.372 526.273, 442.623 536.207, 425.699 552.876 C 419.208 559.269, 410.616 568.550, 406.605 573.500 C 399.940 581.725, 389 597.204, 389 598.410 C 389 598.686, 387.896 600.539, 386.546 602.528 C 383.251 607.383, 374.305 625.848, 371.852 632.857 C 370.766 635.961, 368.498 643.675, 366.813 650 C 363.884 660.990, 363.747 662.387, 363.727 681.500 C 363.708 699.913, 363.911 702.254, 366.286 711 C 367.705 716.225, 370.572 723.568, 372.656 727.317 C 383.612 747.022, 405.103 766.309, 428.500 777.434 C 445.228 785.389, 485.237 796.355, 505.500 798.540 C 508.800 798.895, 513.975 799.790, 517 800.527 C 530.103 803.720, 563.459 803.259, 591.500 799.498 C 619.979 795.678, 653.530 788.321, 664.784 783.428 C 666.590 782.642, 668.694 782, 669.458 782 C 673.034 782, 697.490 770.928, 708.604 764.278 C 717.711 758.829, 731.664 747.652, 737.434 741.184 C 738.570 739.911, 741.456 736.761, 743.846 734.184 C 752.950 724.373, 771.170 700.929, 780.516 687 C 789.199 674.060, 805 644.310, 805 640.902 C 805 640.203, 805.860 637.802, 806.911 635.566 C 809.407 630.257, 818 604.497, 818 602.324 C 818 601.398, 818.862 597.909, 819.915 594.570 C 821.755 588.737, 822.622 585.084, 828.477 558.500 C 829.931 551.900, 831.756 544.025, 832.534 541 C 833.311 537.975, 834.393 531.900, 834.938 527.500 C 835.483 523.100, 836.608 515.225, 837.439 510 C 840.466 490.970, 841.804 452.718, 840.029 436 C 838.605 422.599, 837.836 418.213, 835.119 408 C 832.017 396.338, 830.113 391.678, 822.525 377.187 C 819.541 371.487, 803.909 356.816, 796.904 353.139 C 789.022 349.003, 777.476 345.093, 769.500 343.859 C 757.640 342.024, 739.075 342.025, 729.500 343.860 M 460.768 344.725 C 462.565 344.947, 465.265 344.943, 466.768 344.715 C 468.271 344.486, 466.800 344.304, 463.500 344.310 C 460.200 344.315, 458.971 344.502, 460.768 344.725 M 888.681 512.510 C 888.318 514.704, 888.072 517.850, 888.133 519.500 C 888.194 521.150, 888.638 519.800, 889.119 516.500 C 890.099 509.789, 889.712 506.266, 888.681 512.510 M 671.365 534.502 C 665.062 536.490, 663.194 537.749, 659.994 542.167 C 653.494 551.140, 649.082 575.771, 651.276 590.831 C 652.408 598.598, 656.909 606.667, 663.740 613.176 C 670.300 619.427, 673.868 620.701, 681.780 619.617 C 689.616 618.543, 695.909 610.414, 697.920 598.769 C 698.516 595.321, 699.661 589.350, 700.465 585.500 C 702.136 577.498, 702.477 555.258, 701.010 549.978 C 700.446 547.948, 697.958 544.414, 695.135 541.633 C 691.122 537.680, 688.996 536.470, 683.369 534.933 C 679.591 533.902, 676.275 533.090, 676 533.128 C 675.725 533.166, 673.639 533.785, 671.365 534.502 M 517.993 542.870 C 503.672 551.867, 493.655 577.269, 496.828 596.545 C 498.441 606.343, 506.712 618.667, 514.363 622.670 C 515.937 623.494, 519.562 624.409, 522.418 624.704 C 534.122 625.912, 540.978 618.241, 545.841 598.500 C 547.466 591.900, 549.559 583.624, 550.492 580.108 C 551.653 575.733, 552.080 571, 551.844 565.108 C 551.543 557.576, 551.116 555.878, 548.427 551.518 C 541.683 540.587, 527.873 536.663, 517.993 542.870 M 313.648 672.250 C 312.845 678.935, 312.944 695.142, 313.824 701 C 314.196 703.475, 314.500 696.838, 314.500 686.250 C 314.500 675.663, 314.450 667, 314.389 667 C 314.328 667, 313.995 669.362, 313.648 672.250 M 667.500 668.642 C 663.735 669.541, 650.503 674.067, 647.500 675.481 C 645.850 676.258, 641.800 678.081, 638.500 679.531 C 635.200 680.982, 628.900 683.871, 624.500 685.952 C 610.394 692.624, 607.300 694, 606.390 694.006 C 605.901 694.010, 604.228 694.676, 602.672 695.487 C 598.731 697.543, 583.785 701.011, 576 701.676 C 567.007 702.445, 543.378 698.723, 535.500 695.297 C 532.200 693.862, 524.641 689.721, 518.703 686.094 C 512.765 682.467, 505.340 678.080, 502.203 676.344 C 495.387 672.572, 484.942 670.744, 477.500 672.022 C 474.750 672.494, 472.015 672.908, 471.421 672.940 C 470.828 672.973, 468.283 674.365, 465.765 676.032 C 461.960 678.552, 460.733 680.198, 458.501 685.772 C 455.265 693.856, 455.513 696.340, 460.570 706.577 C 465.397 716.346, 474.878 725.297, 487.500 732.003 C 489.150 732.879, 491.400 734.087, 492.500 734.686 C 493.600 735.285, 497.200 737.046, 500.500 738.598 C 503.800 740.151, 508.550 742.843, 511.056 744.582 C 513.563 746.320, 516.713 748.080, 518.056 748.494 C 519.400 748.907, 520.950 749.597, 521.500 750.027 C 522.050 750.458, 527.225 752.069, 533 753.608 C 542.924 756.252, 544.625 756.403, 564 756.350 C 577.662 756.313, 587.876 755.760, 594.620 754.693 C 600.187 753.812, 608.962 752.802, 614.120 752.449 C 619.279 752.096, 626.425 750.929, 630 749.857 C 633.575 748.784, 639.425 747.032, 643 745.963 C 672.062 737.274, 687.095 729.629, 696.757 718.624 C 705.185 709.025, 708.283 695.347, 704.022 686.545 C 701.256 680.832, 693.991 674.444, 686.879 671.470 C 681.514 669.227, 671.293 667.735, 667.500 668.642 M 627 840 L 622.500 840.700 626.500 840.780 C 628.700 840.823, 631.400 840.473, 632.500 840 C 634.817 839.004, 633.404 839.004, 627 840" stroke="none" fill="#ffcc00" fill-rule="evenodd"/><path d="M 427 237.392 C 427 238.157, 425.904 239.058, 424.565 239.394 C 420.733 240.356, 415.282 247.891, 412.858 255.578 C 410.002 264.635, 410.112 277.673, 413.109 285.275 C 414.966 289.987, 420.684 301.254, 425.586 309.859 C 431.935 321.004, 445.781 336.943, 453.160 341.601 C 462.736 347.646, 479.193 342.468, 486.195 331.208 C 488.253 327.897, 488.500 326.269, 488.500 316 C 488.500 307.344, 488.089 303.634, 486.836 301 C 485.921 299.075, 484.620 295.700, 483.944 293.500 C 483.268 291.300, 482.104 288.612, 481.358 287.527 C 480.611 286.443, 480 284.779, 480 283.830 C 480 282.882, 478.875 279.990, 477.500 277.404 C 476.125 274.818, 475 272.051, 475 271.255 C 475 270.460, 474.379 268.614, 473.619 267.154 C 472.859 265.694, 471.172 262.025, 469.869 259 C 467.459 253.406, 459.715 244, 457.518 244 C 456.854 244, 455.495 243.100, 454.500 242 C 453.498 240.893, 451.420 240, 449.845 240 C 448.280 240, 446.100 239.100, 445 238 C 443.333 236.333, 441.667 236, 435 236 C 428.833 236, 427 236.319, 427 237.392 M 432 240 C 431.342 241.229, 429.906 242, 428.275 242 C 426.359 242, 424.283 243.447, 420.810 247.205 L 416 252.410 416 269.965 C 416 286.436, 416.123 287.596, 418 288.768 C 419.100 289.455, 420 291.068, 420 292.353 C 420 293.639, 420.900 295.505, 422 296.500 C 423.100 297.495, 424 299.140, 424 300.155 C 424 301.170, 424.918 302.918, 426.040 304.040 C 427.162 305.162, 428.531 307.074, 429.083 308.290 C 432.035 314.795, 434.531 317.928, 447.215 331.052 C 451.050 335.019, 454.775 338, 455.898 338 C 456.987 338, 458.149 338.893, 458.500 340 C 458.984 341.524, 460.013 342, 462.827 342 C 465.436 342, 466.885 341.413, 467.768 340 C 468.626 338.627, 470.100 338, 472.473 338 C 474.864 338, 476.248 337.405, 476.963 336.070 C 477.531 335.008, 479.009 333.996, 480.248 333.820 C 481.916 333.583, 482.587 332.722, 482.837 330.500 C 483.023 328.850, 484.035 326.695, 485.087 325.711 C 487.867 323.111, 487.810 310.841, 484.996 306.226 C 483.898 304.425, 483 301.673, 483 300.111 C 483 298.548, 482.137 296.173, 481.082 294.832 C 480.027 293.491, 478.834 290.618, 478.430 288.447 C 478.026 286.276, 476.864 283.912, 475.848 283.193 C 474.771 282.432, 474 280.668, 474 278.967 C 474 277.362, 473.102 274.575, 472.004 272.774 C 470.906 270.973, 470.006 268.332, 470.004 266.905 C 470.002 265.478, 469.100 263.495, 468 262.500 C 466.900 261.505, 466 259.737, 466 258.573 C 466 256.016, 457.975 247, 455.698 247 C 454.807 247, 453.241 246.102, 452.218 245.003 C 450.921 243.612, 448.460 242.808, 444.093 242.352 C 439.568 241.879, 437.507 241.184, 436.673 239.849 C 435.170 237.441, 433.338 237.500, 432 240 M 731.690 258.760 C 728.285 259.453, 722.562 260.403, 718.971 260.870 C 715.380 261.338, 711.015 262.458, 709.271 263.360 C 707.527 264.262, 705.192 265, 704.084 265 C 700.189 265, 678.261 275.760, 669.652 281.895 C 656.876 291, 642.988 306.745, 638.246 317.500 C 634.723 325.490, 632.001 333.337, 632.001 335.502 C 632 336.604, 630.880 342.004, 629.512 347.502 C 628.143 353.001, 627.018 359.238, 627.012 361.363 C 626.980 371.701, 619.571 394.773, 613.496 403.456 C 608.827 410.128, 599.162 418.244, 594.500 419.407 C 592.850 419.819, 590.825 420.736, 590 421.445 C 589.175 422.154, 586.540 423.032, 584.145 423.396 C 581.750 423.759, 578.447 424.752, 576.805 425.601 C 575.163 426.450, 571.879 427.326, 569.507 427.549 C 567.134 427.771, 562.883 428.864, 560.060 429.976 C 557.236 431.089, 553.609 432, 552 432 C 550.391 432, 546.791 432.900, 544 434 C 541.209 435.100, 537.597 436, 535.974 436 C 534.350 436, 530.654 436.900, 527.761 437.999 C 524.867 439.099, 521.143 439.999, 519.485 439.999 C 517.827 440, 514.791 440.900, 512.739 442 C 510.686 443.100, 507.768 444.002, 506.254 444.004 C 504.739 444.006, 502.027 444.906, 500.226 446.004 C 498.425 447.102, 496.123 448, 495.111 448 C 494.098 448, 492.126 448.900, 490.727 450 C 489.329 451.100, 487.421 452, 486.487 452 C 485.026 452, 479.882 454.427, 460.922 464.062 C 458.954 465.062, 456.762 466.582, 456.050 467.440 C 455.338 468.298, 454.248 469.001, 453.628 469.001 C 453.007 469.002, 449.908 470.802, 446.739 473.001 C 443.571 475.201, 440.763 477, 440.498 477 C 439.951 477, 433.997 481.493, 424.306 489.216 C 414.509 497.025, 384.512 527.010, 375.002 538.500 C 370.451 544, 366.425 548.725, 366.056 549 C 364.685 550.023, 351.299 570.466, 347.067 578 C 342.951 585.329, 335 602.956, 335 604.753 C 335 605.304, 334.372 606.276, 333.605 606.913 C 332.837 607.550, 331.897 609.743, 331.515 611.786 C 331.133 613.829, 330.451 615.950, 329.999 616.500 C 329.547 617.050, 327.518 622.675, 325.491 629 C 323.463 635.325, 321.205 642.075, 320.472 644 C 319.739 645.925, 318.870 649.842, 318.541 652.705 C 318.212 655.568, 317.210 659.843, 316.315 662.205 C 313.822 668.781, 313.828 700.107, 316.325 709 C 322.459 730.852, 325.458 738.197, 332.793 749.336 C 337.811 756.957, 360.437 780.072, 368.976 786.300 C 372.014 788.516, 376.372 792.027, 378.660 794.102 C 380.948 796.177, 385.223 799.089, 388.160 800.572 C 391.097 802.056, 394.573 804.109, 395.885 805.135 C 397.197 806.161, 398.926 807, 399.727 807 C 400.529 807, 402.329 807.900, 403.727 809 C 405.126 810.100, 406.926 811, 407.727 811 C 408.529 811, 410.329 811.900, 411.727 813 C 413.126 814.100, 414.926 815, 415.727 815 C 416.529 815, 418.329 815.900, 419.727 817 C 421.126 818.100, 423.273 819, 424.500 819 C 425.727 819, 427.879 819.904, 429.284 821.009 C 430.689 822.114, 433.337 823.293, 435.169 823.631 C 437.001 823.968, 439.447 824.831, 440.604 825.549 C 441.761 826.267, 444.461 827.163, 446.604 827.540 C 448.747 827.916, 451.509 828.857, 452.742 829.630 C 453.976 830.404, 457.126 831.324, 459.742 831.676 C 462.359 832.028, 465.400 832.897, 466.500 833.607 C 468.378 834.820, 476.628 836.654, 478.229 836.214 C 478.629 836.104, 481.554 836.734, 484.729 837.614 C 487.903 838.494, 495.900 839.608, 502.500 840.091 C 524.378 841.690, 529 842.217, 529 843.113 C 529 843.615, 546.810 844, 570 844 C 593.392 844, 611 843.616, 611 843.107 C 611 841.574, 614.222 840.784, 622.166 840.370 C 626.382 840.150, 632.628 839.077, 636.046 837.985 C 639.464 836.893, 643.566 836, 645.162 836 C 646.758 836, 650.636 835.155, 653.782 834.123 C 656.927 833.090, 661.513 831.944, 663.974 831.575 C 666.435 831.206, 669.135 830.312, 669.974 829.587 C 670.813 828.862, 673.717 827.981, 676.427 827.630 C 679.137 827.278, 682.062 826.378, 682.927 825.630 C 683.792 824.882, 686.192 824.012, 688.260 823.697 C 690.327 823.381, 693.322 822.195, 694.914 821.061 C 696.506 819.928, 698.950 819, 700.345 819 C 701.740 819, 703.134 818.592, 703.443 818.092 C 703.751 817.593, 706.472 816.408, 709.490 815.459 C 712.507 814.510, 715.487 813.119, 716.110 812.367 C 716.734 811.615, 718.029 811, 718.988 811 C 719.946 811, 721.803 810.161, 723.115 809.135 C 724.427 808.109, 727.750 806.063, 730.500 804.587 C 736.922 801.141, 744.463 795.842, 760 783.860 C 783.031 766.098, 810.441 735.325, 825.341 710.500 C 831.125 700.862, 831.866 699.548, 834.182 694.814 C 835.174 692.786, 836.439 690.847, 836.993 690.505 C 837.547 690.162, 838 689.069, 838 688.076 C 838 687.082, 838.900 685.126, 840 683.727 C 841.100 682.329, 842.003 680.581, 842.006 679.842 C 842.010 679.104, 842.731 677.150, 843.610 675.500 C 844.488 673.850, 845.781 670.925, 846.483 669 C 847.185 667.075, 849.318 662.125, 851.222 658 C 853.126 653.875, 855.927 647.350, 857.447 643.500 C 858.967 639.650, 860.838 635.306, 861.605 633.846 C 862.372 632.386, 863 630.444, 863 629.531 C 863 628.618, 863.831 625.762, 864.847 623.185 C 865.863 620.608, 867.633 615.350, 868.782 611.500 C 869.930 607.650, 871.607 602.250, 872.507 599.500 C 873.408 596.750, 874.579 592.076, 875.108 589.114 C 875.637 586.152, 876.955 581.103, 878.035 577.895 C 879.116 574.688, 880 570.556, 880 568.714 C 880 566.872, 880.889 562.020, 881.976 557.932 C 883.064 553.845, 883.964 548.569, 883.976 546.208 C 883.989 543.847, 884.637 538.672, 885.415 534.708 C 887.913 521.982, 888.123 520.037, 888.594 505.144 C 889.061 490.412, 890.232 483.125, 892.353 481.765 C 893.185 481.232, 893.157 481.026, 892.250 481.015 C 891.371 481.005, 891 478.925, 891 474 C 891 470, 891.429 467, 892 467 C 892.652 467, 893 450.787, 893 420.360 C 893 380.658, 892.783 373.555, 891.541 372.610 C 890.738 372, 889.559 369.250, 888.920 366.500 C 885.246 350.686, 873.773 328.678, 862.773 316.345 C 855.546 308.241, 836.734 291, 835.119 291 C 834.655 291, 832.526 289.601, 830.388 287.891 C 828.249 286.181, 824.250 283.779, 821.500 282.553 C 818.750 281.327, 815.882 279.576, 815.128 278.662 C 814.373 277.748, 813.094 277, 812.285 277 C 811.477 277, 809.671 276.100, 808.273 275 C 806.874 273.900, 805.074 273, 804.273 273 C 803.471 273, 801.671 272.100, 800.273 271 C 798.874 269.900, 796.849 269, 795.773 269 C 794.696 269, 792.671 268.100, 791.273 267 C 789.874 265.900, 787.648 265, 786.325 265 C 785.003 265, 782.036 264.039, 779.733 262.864 C 777.430 261.689, 773.735 260.743, 771.523 260.763 C 769.310 260.782, 765.475 260.186, 763 259.437 C 756.908 257.593, 739.291 257.213, 731.690 258.760 M 717.289 264.867 C 716.096 266.112, 713.334 266.972, 709.002 267.445 C 704.555 267.931, 701.939 268.762, 700.713 270.078 C 699.728 271.135, 697.659 272, 696.116 272 C 694.573 272, 692.495 272.900, 691.500 274 C 690.505 275.100, 688.480 276, 687 276 C 685.520 276, 683.495 276.900, 682.500 278 C 681.505 279.100, 679.876 280, 678.880 280 C 677.885 280, 676.589 280.900, 676 282 C 675.411 283.100, 674.049 284, 672.973 284 C 671.897 284, 670.455 284.900, 669.768 286 C 669.081 287.100, 668.121 288, 667.634 288 C 666.450 288, 649 305.778, 649 306.984 C 649 307.504, 648.100 308.411, 647 309 C 645.900 309.589, 645 310.660, 645 311.380 C 645 312.101, 644.100 313.505, 643 314.500 C 641.900 315.495, 641 317.305, 641 318.520 C 641 319.736, 640.100 321.874, 639 323.273 C 637.636 325.007, 637 327.330, 637 330.579 C 637 333.714, 636.402 336.002, 635.250 337.273 C 633.888 338.775, 633.387 341.633, 632.990 350.177 C 632.570 359.225, 632.175 361.323, 630.740 362.126 C 629.356 362.900, 629 364.474, 629 369.814 C 629 374.440, 628.422 377.614, 627.143 380.015 C 626.121 381.932, 624.973 385.606, 624.592 388.180 C 624.211 390.753, 623.021 393.974, 621.949 395.337 C 620.877 396.700, 620 398.753, 620 399.899 C 620 401.045, 619.100 402.545, 618 403.232 C 616.900 403.919, 616 404.984, 616 405.598 C 616 406.808, 606.170 417, 605.003 417 C 604.612 417, 603.078 418.125, 601.595 419.500 C 600.111 420.875, 598.204 422, 597.356 422 C 596.509 422, 594.671 422.900, 593.273 424 C 591.874 425.100, 589.624 426, 588.273 426 C 586.921 426, 584.671 426.900, 583.273 428 C 581.405 429.470, 579.216 430, 575.020 430 C 570.580 430, 568.907 430.445, 567.500 432 C 566.028 433.627, 564.420 434, 558.880 434 C 553.094 434, 551.910 434.301, 551 436 C 550.090 437.699, 548.906 438, 543.120 438 C 537.580 438, 535.972 438.373, 534.500 440 C 533.052 441.600, 531.420 442, 526.345 442 C 521.376 442, 519.575 442.425, 518.040 443.960 C 516.854 445.146, 513.989 446.187, 510.790 446.596 C 507.656 446.996, 504.771 448.031, 503.711 449.136 C 502.591 450.303, 500.525 451, 498.183 451 C 495.682 451, 493.878 451.662, 492.732 453 C 491.635 454.281, 489.782 455, 487.577 455 C 485.013 455, 483.973 455.510, 483.500 457 C 483.040 458.450, 481.987 459, 479.673 459 C 477.564 459, 476.057 459.679, 475.232 461 C 474.441 462.267, 472.900 463, 471.027 463 C 469.094 463, 467.700 463.692, 467 465 C 466.385 466.150, 464.906 467, 463.522 467 C 462.197 467, 460.505 467.868, 459.762 468.929 C 459.019 469.991, 457.226 471.156, 455.779 471.519 C 454.331 471.883, 452.369 473.039, 451.419 474.090 C 450.468 475.140, 448.876 476, 447.880 476 C 446.885 476, 445.589 476.900, 445 478 C 444.411 479.100, 443.154 480, 442.205 480 C 441.257 480, 439.919 480.900, 439.232 482 C 438.545 483.100, 437.487 484, 436.880 484 C 436.274 484, 433.465 485.888, 430.639 488.195 C 423.256 494.221, 371.538 546.118, 369.999 549.044 C 369.289 550.395, 368.099 551.860, 367.354 552.300 C 366.609 552.740, 366 553.896, 366 554.869 C 366 555.843, 364.987 557.605, 363.750 558.786 C 359.205 563.122, 358 564.704, 358 566.334 C 358 567.250, 357.147 568.853, 356.105 569.895 C 354.204 571.796, 352.407 574.794, 349.671 580.628 C 348.864 582.348, 347.708 584.062, 347.102 584.437 C 346.496 584.812, 346 585.904, 346 586.865 C 346 587.825, 344.875 590.136, 343.500 592 C 342.125 593.864, 341 596.365, 341 597.559 C 341 598.753, 340.100 600.874, 339 602.273 C 337.900 603.671, 337 606.107, 337 607.685 C 337 609.318, 336.138 611.294, 335 612.268 C 333.861 613.243, 333 615.218, 333 616.855 C 333 618.437, 332.100 620.874, 331 622.273 C 329.900 623.671, 328.990 626.319, 328.978 628.158 C 328.966 629.996, 328.076 632.625, 327 634 C 325.635 635.746, 325.038 638.084, 325.022 641.750 C 325.006 645.526, 324.474 647.526, 323.128 648.872 C 321.589 650.411, 321.125 652.999, 320.525 663.403 C 320.024 672.089, 319.356 676.501, 318.398 677.460 C 316.498 679.359, 316.467 692.313, 318.358 693.882 C 319.263 694.633, 319.950 698.715, 320.419 706.122 C 320.928 714.167, 321.658 718.234, 323.061 720.853 C 324.128 722.843, 325 725.659, 325 727.113 C 325 728.566, 325.646 730.291, 326.436 730.947 C 327.225 731.602, 328.173 733.513, 328.542 735.193 C 329.283 738.563, 336.490 749.746, 339.250 751.807 C 340.212 752.525, 341 753.584, 341 754.160 C 341 754.735, 343.025 757.458, 345.500 760.211 C 347.975 762.964, 350 765.618, 350 766.108 C 350 766.599, 350.563 767.014, 351.250 767.031 C 351.938 767.048, 355.606 769.973, 359.403 773.531 C 363.199 777.089, 366.687 780, 367.154 780 C 367.620 780, 369.749 781.800, 371.884 784 C 374.019 786.200, 376.160 788, 376.642 788 C 377.124 788, 378.081 788.900, 378.768 790 C 379.455 791.100, 380.672 792, 381.473 792 C 382.274 792, 383.411 792.900, 384 794 C 384.589 795.100, 385.885 796, 386.880 796 C 387.876 796, 389.505 796.900, 390.500 798 C 391.495 799.100, 393.070 800, 394 800 C 394.930 800, 396.505 800.900, 397.500 802 C 398.495 803.100, 400.295 804, 401.500 804 C 402.705 804, 404.505 804.900, 405.500 806 C 406.495 807.100, 408.348 808, 409.616 808 C 410.884 808, 412.727 808.837, 413.711 809.859 C 414.695 810.882, 416.830 812.038, 418.455 812.430 C 420.081 812.821, 422.019 814.009, 422.762 815.071 C 423.732 816.456, 425.298 817, 428.316 817 C 431.436 817, 432.841 817.515, 433.768 819 C 434.715 820.517, 436.100 821, 439.500 821 C 442.900 821, 444.285 821.483, 445.232 823 C 446.195 824.541, 447.564 825, 451.202 825 C 454.516 825, 456.455 825.559, 457.711 826.876 C 458.927 828.151, 461.391 828.902, 465.400 829.221 C 469.016 829.508, 471.726 830.267, 472.400 831.182 C 473.193 832.259, 476.398 832.851, 483.884 833.304 C 491.215 833.748, 494.778 834.394, 496.003 835.503 C 497.459 836.820, 502.375 837.174, 526.518 837.700 C 552.757 838.271, 555.438 838.488, 556.872 840.163 C 558.257 841.781, 560.091 842, 572.263 842 C 584.267 842, 586.437 841.749, 588.790 840.085 C 591.124 838.435, 593.914 838.095, 608.912 837.631 C 620.495 837.273, 626.565 836.704, 627.041 835.934 C 627.952 834.460, 634.939 833.100, 641.890 833.044 C 645.786 833.012, 647.626 832.526, 648.531 831.289 C 649.448 830.034, 651.663 829.471, 656.835 829.179 C 662.132 828.880, 664.315 828.310, 665.599 826.890 C 666.814 825.548, 668.671 825, 672 825 C 675.420 825, 677.180 824.458, 678.500 823 C 679.777 821.589, 681.580 821, 684.620 821 C 687.906 821, 689.184 820.525, 690 819 C 690.806 817.493, 692.094 817, 695.221 817 C 698.032 817, 700.077 816.337, 701.558 814.945 C 702.761 813.815, 704.922 812.765, 706.360 812.612 C 707.798 812.459, 709.824 811.564, 710.863 810.624 C 711.902 809.684, 714.363 808.653, 716.333 808.333 C 718.303 808.014, 720.678 806.908, 721.612 805.876 C 722.546 804.844, 724.070 804, 725 804 C 725.930 804, 727.505 803.100, 728.500 802 C 729.495 800.900, 731.124 800, 732.120 800 C 733.115 800, 734.411 799.100, 735 798 C 735.589 796.900, 736.929 796, 737.978 796 C 739.028 796, 740.481 795.212, 741.209 794.250 C 741.936 793.288, 743.259 792.050, 744.149 791.500 C 749.908 787.942, 757.101 782.539, 760.711 779.059 C 763.028 776.827, 765.282 775, 765.721 775 C 766.160 775, 767.081 774.100, 767.768 773 C 768.455 771.900, 769.624 771, 770.366 771 C 771.854 771, 787.627 755.025, 790.562 750.545 C 791.579 748.994, 795.918 744.126, 800.205 739.728 C 804.492 735.330, 808 731.187, 808 730.521 C 808 729.855, 808.860 728.532, 809.910 727.581 C 810.961 726.631, 812.094 724.761, 812.429 723.426 C 812.764 722.092, 813.705 721, 814.519 721 C 815.334 721, 816 720.325, 816 719.500 C 816 718.675, 816.835 717.165, 817.855 716.145 C 818.876 715.124, 820.009 713.099, 820.374 711.645 C 820.739 710.190, 821.696 709, 822.500 709 C 823.304 709, 824.270 707.763, 824.645 706.250 C 825.021 704.737, 826.061 702.375, 826.955 701 C 829.701 696.776, 830.913 694.627, 832.383 691.372 C 833.160 689.652, 834.257 687.959, 834.821 687.611 C 835.385 687.262, 836.152 685.586, 836.525 683.887 C 836.898 682.187, 838.058 679.942, 839.102 678.898 C 840.146 677.854, 841 675.936, 841 674.635 C 841 673.334, 841.900 671.126, 843 669.727 C 844.100 668.329, 845 666.079, 845 664.727 C 845 663.376, 845.900 661.126, 847 659.727 C 848.100 658.329, 849 656.088, 849 654.747 C 849 653.407, 849.900 651.495, 851 650.500 C 852.100 649.505, 853 647.809, 853 646.731 C 853 645.654, 853.869 643.136, 854.931 641.136 C 855.993 639.136, 857.130 635.856, 857.458 633.847 C 857.786 631.837, 858.681 629.953, 859.448 629.659 C 860.275 629.341, 861.123 626.864, 861.536 623.562 C 861.918 620.503, 862.556 618, 862.955 618 C 864.146 618, 866 613.116, 866 609.977 C 866 608.366, 866.898 605.575, 867.996 603.774 C 869.275 601.677, 869.994 598.731, 869.996 595.579 C 869.999 592.299, 870.584 590.012, 871.750 588.724 C 873.005 587.337, 873.661 584.379, 874.067 578.265 C 874.467 572.257, 875.089 569.408, 876.172 568.616 C 877.320 567.777, 877.836 564.861, 878.210 557.088 C 878.575 549.500, 879.112 546.389, 880.194 545.592 C 881.340 544.748, 881.819 541.012, 882.304 529.117 C 882.796 517.061, 883.278 513.351, 884.531 511.965 C 885.927 510.423, 886.207 504.571, 886.724 466.111 C 887.276 424.984, 887.440 421.912, 889.158 420.357 C 890.804 418.868, 891 416.954, 891 402.395 C 891 388.025, 890.797 385.986, 889.281 385.137 C 887.927 384.379, 887.411 382.118, 886.853 374.497 C 886.392 368.193, 885.627 364.240, 884.657 363.159 C 883.839 362.247, 882.837 359.709, 882.430 357.520 C 882.024 355.331, 880.862 352.181, 879.849 350.520 C 878.836 348.859, 878.006 346.782, 878.004 345.905 C 878.002 345.028, 877.100 343.495, 876 342.500 C 874.883 341.489, 874 339.420, 874 337.814 C 874 336.213, 873.352 334.688, 872.538 334.376 C 871.734 334.068, 870.794 332.925, 870.448 331.837 C 869.251 328.066, 862.454 319.665, 853.066 310.356 C 847.877 305.210, 843.121 301, 842.496 301 C 841.872 301, 840.382 299.875, 839.187 298.500 C 837.991 297.125, 836.443 296, 835.747 296 C 835.051 296, 833.919 295.100, 833.232 294 C 832.545 292.900, 831.117 292, 830.059 292 C 829.001 292, 827.849 291.100, 827.500 290 C 827.110 288.771, 825.987 288, 824.588 288 C 823.335 288, 821.495 287.100, 820.500 286 C 819.505 284.900, 817.864 284, 816.853 284 C 815.843 284, 814.455 283.100, 813.768 282 C 813.015 280.795, 811.436 280, 809.795 280 C 808.094 280, 806.668 279.249, 806 278 C 805.304 276.699, 803.906 276, 802 276 C 800.094 276, 798.696 275.301, 798 274 C 797.317 272.723, 795.906 272, 794.100 272 C 792.543 272, 790.139 271.110, 788.756 270.023 C 787.309 268.884, 783.842 267.764, 780.580 267.381 C 776.546 266.906, 774.632 266.181, 773.924 264.857 C 772.993 263.118, 771.218 263, 746.004 263 C 721.021 263, 718.949 263.135, 717.289 264.867 M 276.352 339.843 C 267.126 343.085, 263.278 350.137, 264.356 361.825 C 265.040 369.245, 268.991 376.961, 274.764 382.152 C 285.369 391.688, 312.020 410.869, 319.656 414.461 C 322.492 415.795, 325.081 417.322, 325.410 417.854 C 327.270 420.864, 351.257 421.748, 355.658 418.968 C 359.007 416.854, 364 407.502, 363.998 403.350 C 363.995 397.522, 358.750 388.540, 350.124 379.590 C 332.029 360.815, 326.151 355.255, 320.500 351.570 C 317.200 349.417, 313.281 346.834, 311.790 345.828 C 310.300 344.823, 308.553 344, 307.909 344 C 307.264 344, 305.194 343.047, 303.309 341.882 C 301.424 340.717, 297.996 339.619, 295.691 339.442 C 293.386 339.265, 289.250 338.875, 286.500 338.576 C 283.045 338.201, 279.909 338.592, 276.352 339.843 M 731.500 340 C 729.198 341.112, 725.328 341.947, 722.385 341.966 C 718.823 341.990, 716.498 342.607, 714.727 344 C 713.329 345.100, 711.313 346, 710.247 346 C 709.182 346, 707.495 346.900, 706.500 348 C 705.505 349.100, 704.154 350, 703.498 350 C 701.328 350, 687.416 363.114, 686.490 366.033 C 686.178 367.013, 685.266 368.068, 684.462 368.376 C 683.658 368.685, 683 369.851, 683 370.969 C 683 372.086, 682.086 373.914, 680.969 375.031 C 679.852 376.148, 678.665 378.511, 678.331 380.281 C 677.998 382.052, 677.074 384.253, 676.278 385.172 C 675.482 386.092, 674.596 388.792, 674.310 391.172 C 674.024 393.553, 672.937 397.330, 671.895 399.566 C 670.718 402.091, 669.992 405.879, 669.978 409.566 C 669.964 413.301, 669.223 417.116, 667.978 419.859 C 666.602 422.891, 665.998 426.392, 665.993 431.359 C 665.988 436.803, 665.515 439.213, 664 441.500 C 662.907 443.150, 662.010 445.093, 662.007 445.817 C 662 447.125, 657.903 453.032, 654.966 455.967 C 652.431 458.501, 645.483 463, 644.104 463 C 643.395 463, 641.671 463.900, 640.273 465 C 637.868 466.892, 636.180 467.002, 609.115 467.044 C 585.446 467.080, 579.809 467.361, 576.500 468.670 C 574.300 469.540, 569.350 470.533, 565.500 470.876 C 561.330 471.248, 557.500 472.207, 556.027 473.250 C 554.668 474.212, 551.961 475, 550.013 475 C 548.064 475, 544.902 475.834, 542.985 476.853 C 541.068 477.873, 537.900 479.002, 535.944 479.362 C 533.988 479.723, 530.630 480.914, 528.482 482.009 C 526.335 483.104, 523.731 484, 522.696 484 C 521.662 484, 519.671 484.900, 518.273 486 C 516.874 487.100, 515.074 488, 514.273 488 C 513.471 488, 511.671 488.900, 510.273 490 C 508.874 491.100, 506.960 492, 506.018 492 C 505.076 492, 503.268 492.900, 502 494 C 500.732 495.100, 498.933 496, 498.002 496 C 497.071 496, 495.495 496.900, 494.500 498 C 493.505 499.100, 491.951 500, 491.048 500 C 490.146 500, 488.528 500.677, 487.453 501.504 C 483.246 504.743, 476.445 508.965, 475.405 508.982 C 474.803 508.992, 473.495 509.900, 472.500 511 C 471.505 512.100, 470.071 513, 469.314 513 C 468.557 513, 467.685 513.658, 467.376 514.462 C 467.068 515.266, 465.846 516.231, 464.662 516.607 C 463.477 516.983, 460.198 519.138, 457.375 521.395 C 454.552 523.653, 450.990 526.400, 449.459 527.500 C 446.766 529.435, 442.333 532.904, 438.597 536 C 433.719 540.042, 404 570.242, 404 571.157 C 404 571.734, 401.170 575.648, 397.711 579.853 C 394.252 584.059, 390.859 588.625, 390.172 590 C 388.093 594.154, 386.404 596.893, 384.779 598.743 C 383.931 599.709, 382.941 601.471, 382.580 602.658 C 382.219 603.844, 381.266 605.068, 380.462 605.376 C 379.658 605.685, 379 607.059, 379 608.430 C 379 609.800, 378.152 611.727, 377.116 612.711 C 376.081 613.695, 374.927 615.931, 374.552 617.681 C 374.178 619.430, 373.237 621.388, 372.462 622.031 C 371.687 622.675, 370.761 624.843, 370.405 626.850 C 370.048 628.858, 368.911 631.903, 367.878 633.618 C 366.845 635.333, 366 637.836, 366 639.180 C 366 640.524, 365.100 643.487, 364 645.764 C 362.564 648.737, 361.998 651.960, 361.994 657.202 C 361.990 661.720, 361.419 665.591, 360.494 667.364 C 358.354 671.467, 358.359 693.223, 360.500 695 C 361.620 695.930, 362.002 698.430, 362.007 704.872 C 362.012 711.800, 362.405 714.091, 364 716.500 C 365.093 718.150, 365.990 720.452, 365.993 721.615 C 365.997 722.778, 366.900 724.874, 368 726.273 C 369.100 727.671, 370 729.275, 370 729.836 C 370 730.398, 370.579 731.452, 371.286 732.179 C 371.993 732.905, 373.568 735.075, 374.785 737 C 376.002 738.925, 377.786 741.735, 378.749 743.244 C 379.712 744.753, 381.063 745.990, 381.750 745.994 C 382.438 745.997, 383.002 746.337, 383.005 746.750 C 383.023 749.590, 407.647 771, 410.895 771 C 411.332 771, 412.505 771.900, 413.500 773 C 414.495 774.100, 415.828 775, 416.461 775 C 417.094 775, 419.136 776.125, 421 777.500 C 422.864 778.875, 425.018 780, 425.787 780 C 426.555 780, 428.329 780.900, 429.727 782 C 431.126 783.100, 433.376 784, 434.727 784 C 436.079 784, 438.329 784.900, 439.727 786 C 441.238 787.188, 443.784 788, 446 788 C 448.216 788, 450.762 788.812, 452.273 790 C 453.810 791.209, 456.334 792.001, 458.658 792.004 C 460.771 792.006, 463.973 792.906, 465.774 794.004 C 467.756 795.212, 470.811 796, 473.513 796 C 475.969 796, 480.275 796.873, 483.083 797.939 C 485.890 799.006, 491.857 800.190, 496.343 800.569 C 500.830 800.949, 505.736 801.887, 507.247 802.654 C 508.758 803.421, 515.733 804.482, 522.747 805.013 C 529.761 805.543, 539.100 806.353, 543.500 806.813 C 549.221 807.410, 552.497 807.295, 555 806.409 C 556.968 805.712, 566.030 804.934, 575.709 804.631 C 587.812 804.253, 593.746 803.667, 595.709 802.655 C 597.244 801.864, 603 800.882, 608.500 800.473 C 615.151 799.979, 619.667 799.105, 621.985 797.865 C 624.357 796.596, 627.551 795.998, 631.985 795.993 C 636.804 795.989, 639.281 795.470, 641.500 794 C 643.331 792.787, 646.192 792.011, 648.842 792.007 C 651.662 792.002, 654.076 791.299, 655.727 790 C 657.267 788.788, 659.784 788, 662.111 788 C 664.223 788, 667.425 787.102, 669.226 786.004 C 671.027 784.906, 673.677 784.006, 675.115 784.004 C 676.553 784.002, 678.803 783.170, 680.115 782.155 C 681.427 781.140, 683.999 780.019, 685.831 779.664 C 687.663 779.308, 690.311 778.114, 691.716 777.009 C 693.121 775.904, 694.926 775, 695.727 775 C 696.529 775, 698.329 774.100, 699.727 773 C 701.126 771.900, 702.884 771, 703.635 771 C 704.386 771, 705.900 770.100, 707 769 C 708.100 767.900, 709.800 767, 710.778 767 C 711.756 767, 713.287 766.212, 714.181 765.250 C 715.074 764.288, 717.435 762.375, 719.427 761 C 723.210 758.387, 725.525 756.493, 733 749.893 C 740.860 742.952, 746.091 737.357, 754.682 726.701 C 757.697 722.961, 761.365 718.589, 762.832 716.984 C 766.756 712.695, 770 708.309, 770 707.293 C 770 706.804, 771.800 704.530, 774 702.240 C 776.200 699.951, 778.007 697.722, 778.015 697.289 C 778.024 696.855, 779.613 694.250, 781.547 691.500 C 787.648 682.825, 790 679.072, 790 678.013 C 790 677.449, 791.125 676.009, 792.500 674.813 C 793.875 673.618, 795 671.665, 795 670.475 C 795 669.284, 795.855 667.536, 796.901 666.590 C 797.947 665.643, 799.084 663.367, 799.428 661.531 C 799.773 659.695, 800.675 657.955, 801.433 657.664 C 802.191 657.373, 803.129 655.642, 803.517 653.818 C 803.905 651.993, 804.886 649.747, 805.696 648.828 C 806.506 647.908, 807.413 645.339, 807.711 643.118 C 808.009 640.898, 809.096 638.318, 810.126 637.386 C 811.247 636.372, 812 634.345, 812 632.345 C 812 630.505, 812.378 629, 812.839 629 C 814.148 629, 816 624.230, 816 620.861 C 816 619.186, 816.900 616.671, 818 615.273 C 819.340 613.569, 820.002 611.208, 820.007 608.115 C 820.011 605.193, 820.742 602.400, 822 600.500 C 823.130 598.794, 823.999 595.775, 824.015 593.500 C 824.031 591.300, 824.924 587.560, 826 585.189 C 827.076 582.818, 828.261 577.868, 828.633 574.189 C 829.004 570.510, 829.912 566.569, 830.651 565.431 C 831.389 564.293, 832.257 560.468, 832.580 556.931 C 832.903 553.394, 834.030 548.392, 835.084 545.815 C 836.249 542.965, 837 538.744, 837 535.040 C 837 531.513, 837.842 526.555, 839 523.260 C 840.510 518.964, 841 515.006, 841 507.113 C 841 498.823, 841.340 496.282, 842.641 494.844 C 844.045 493.293, 844.355 489.256, 844.785 466.925 C 845.154 447.732, 844.939 438.977, 843.974 433.864 C 843.253 430.039, 842.288 426.678, 841.831 426.396 C 841.374 426.113, 841 422.772, 841 418.971 C 841 413.914, 840.464 411.106, 839 408.500 C 837.900 406.542, 837 403.582, 837 401.924 C 837 400.265, 835.875 396.795, 834.500 394.212 C 833.125 391.629, 832 388.780, 832 387.880 C 832 386.981, 831.369 385.721, 830.598 385.081 C 829.827 384.442, 828.900 382.737, 828.538 381.294 C 827.677 377.865, 825.103 374.476, 816 364.786 C 809.421 357.783, 799.711 350, 797.554 350 C 797.148 350, 795.671 349.100, 794.273 348 C 792.874 346.900, 790.889 346, 789.862 346 C 788.834 346, 786.314 345.100, 784.261 344 C 782.141 342.863, 778.580 341.991, 776.015 341.978 C 773.532 341.966, 769.538 341.066, 767.141 339.978 C 760.828 337.113, 737.446 337.128, 731.500 340 M 276.571 342.674 C 272.866 343.714, 267.240 350.915, 266.553 355.495 C 265.844 360.220, 266.600 364.686, 268.500 367 C 269.177 367.825, 270 369.625, 270.329 371 C 271.087 374.170, 280.647 384, 282.972 384 C 283.666 384, 285.981 385.800, 288.116 388 C 290.251 390.200, 292.432 392, 292.964 392 C 293.495 392, 294.411 392.900, 295 394 C 295.589 395.100, 296.939 396, 298 396 C 299.061 396, 300.411 396.900, 301 398 C 301.589 399.100, 302.704 400, 303.478 400 C 304.253 400, 305.475 400.827, 306.193 401.838 C 306.912 402.849, 308.684 403.970, 310.131 404.327 C 311.577 404.685, 312.998 405.883, 313.287 406.989 C 313.627 408.290, 314.649 409, 316.184 409 C 317.488 409, 319.326 409.900, 320.268 411 C 321.268 412.168, 323.218 413, 324.955 413 C 326.906 413, 328.298 413.688, 329 415 C 329.976 416.824, 331.094 417, 341.671 417 C 352.822 417, 353.362 416.901, 355.635 414.448 C 356.936 413.045, 358 410.799, 358 409.457 C 358 408.100, 358.888 406.463, 360 405.768 C 361.100 405.081, 362 403.780, 362 402.876 C 362 401.973, 361.100 400.998, 360 400.710 C 358.516 400.322, 358 399.346, 358 396.928 C 358 395.135, 357.382 392.955, 356.626 392.084 C 353.060 387.972, 343.685 379, 342.955 379 C 342.504 379, 341.830 378.040, 341.458 376.867 C 340.706 374.500, 325.875 359, 324.361 359 C 323.834 359, 321.530 357.200, 319.240 355 C 316.951 352.800, 314.176 351, 313.074 351 C 311.972 351, 310.622 350.162, 310.073 349.137 C 309.438 347.950, 307.532 347.066, 304.823 346.703 C 302.484 346.389, 300.010 345.366, 299.324 344.429 C 298.327 343.065, 296.125 342.666, 288.289 342.429 C 282.905 342.265, 277.632 342.376, 276.571 342.674 M 729.500 343.860 C 718.056 346.054, 712.128 348.323, 704 353.621 C 696.675 358.396, 693.741 361.287, 688.876 368.518 C 681.041 380.165, 675.966 394.649, 672.411 415.500 C 671.661 419.900, 670.378 426.425, 669.559 430 C 668.740 433.575, 668.054 437.744, 668.035 439.265 C 667.996 442.365, 663.339 451.134, 659.621 455.109 C 655.005 460.043, 648.351 464.950, 642.872 467.458 C 636.563 470.347, 624.050 472.034, 618.916 470.688 C 614.493 469.529, 586.270 470.425, 578.500 471.971 C 557.910 476.069, 543.473 479.915, 532.815 484.142 C 530.238 485.164, 527.538 486, 526.816 486 C 524.563 486, 490.473 503.607, 481.472 509.419 C 455.372 526.273, 442.623 536.207, 425.699 552.876 C 419.208 559.269, 410.616 568.550, 406.605 573.500 C 399.940 581.725, 389 597.204, 389 598.410 C 389 598.686, 387.896 600.539, 386.546 602.528 C 383.251 607.383, 374.305 625.848, 371.852 632.857 C 370.766 635.961, 368.498 643.675, 366.813 650 C 363.884 660.990, 363.747 662.387, 363.727 681.500 C 363.708 699.913, 363.911 702.254, 366.286 711 C 367.705 716.225, 370.572 723.568, 372.656 727.317 C 383.612 747.022, 405.103 766.309, 428.500 777.434 C 445.228 785.389, 485.237 796.355, 505.500 798.540 C 508.800 798.895, 513.975 799.790, 517 800.527 C 530.103 803.720, 563.459 803.259, 591.500 799.498 C 619.979 795.678, 653.530 788.321, 664.784 783.428 C 666.590 782.642, 668.694 782, 669.458 782 C 673.034 782, 697.490 770.928, 708.604 764.278 C 717.711 758.829, 731.664 747.652, 737.434 741.184 C 738.570 739.911, 741.456 736.761, 743.846 734.184 C 752.950 724.373, 771.170 700.929, 780.516 687 C 789.199 674.060, 805 644.310, 805 640.902 C 805 640.203, 805.860 637.802, 806.911 635.566 C 809.407 630.257, 818 604.497, 818 602.324 C 818 601.398, 818.862 597.909, 819.915 594.570 C 821.755 588.737, 822.622 585.084, 828.477 558.500 C 829.931 551.900, 831.756 544.025, 832.534 541 C 833.311 537.975, 834.393 531.900, 834.938 527.500 C 835.483 523.100, 836.608 515.225, 837.439 510 C 840.466 490.970, 841.804 452.718, 840.029 436 C 838.605 422.599, 837.836 418.213, 835.119 408 C 832.017 396.338, 830.113 391.678, 822.525 377.187 C 819.541 371.487, 803.909 356.816, 796.904 353.139 C 789.022 349.003, 777.476 345.093, 769.500 343.859 C 757.640 342.024, 739.075 342.025, 729.500 343.860 M 207.404 491.087 C 200.178 492.296, 193.527 495.385, 191.359 498.540 C 190.336 500.027, 188.488 502.334, 187.250 503.667 C 185.335 505.730, 185 507.200, 185 513.545 C 185 519.214, 185.330 521, 186.379 521 C 187.137 521, 188.313 522.341, 188.991 523.979 C 190.280 527.089, 200.491 537.957, 205.571 541.625 C 211.583 545.965, 226.007 553, 228.895 553 C 230.538 553, 232.153 553.438, 232.483 553.973 C 233.538 555.679, 240.640 557.046, 251.222 557.580 C 256.875 557.865, 262.022 558.272, 262.660 558.483 C 264.395 559.059, 271.120 556.884, 274.274 554.727 C 275.799 553.684, 278.689 550.281, 280.695 547.165 C 286.997 537.378, 286.244 528.311, 278.485 520.552 C 275.432 517.499, 263.621 509, 262.431 509 C 262.105 509, 259.466 507.425, 256.566 505.500 C 253.666 503.575, 250.511 502, 249.554 502 C 248.598 502, 246.671 501.100, 245.273 500 C 243.874 498.900, 242.114 498, 241.362 498 C 240.609 498, 238.314 497.100, 236.261 496 C 234.209 494.900, 231.335 494, 229.874 494 C 228.413 494, 225.257 493.110, 222.859 492.022 C 218.197 489.906, 215.451 489.740, 207.404 491.087 M 206.130 496.056 C 197.328 496.772, 196.585 497.009, 193.880 499.971 C 192.102 501.916, 191 504.227, 191 506.005 C 191 507.843, 190.185 509.477, 188.750 510.518 L 186.500 512.149 188.750 513.697 C 190.483 514.889, 191 516.213, 191 519.463 C 191 523.355, 191.550 524.235, 198.117 530.841 C 202.031 534.778, 206.065 538, 207.082 538 C 208.098 538, 209.411 538.900, 210 540 C 210.642 541.200, 212.094 542, 213.629 542 C 215.346 542, 216.359 542.657, 216.710 544 C 217.103 545.502, 218.074 546, 220.608 546 C 222.900 546, 224.384 546.642, 225.232 548 C 226.179 549.515, 227.574 550.003, 230.991 550.014 C 236.934 550.032, 240 550.917, 240 552.617 C 240 553.734, 242.916 554, 255.138 554 L 270.276 554 274.616 549.250 C 277.469 546.127, 278.963 543.571, 278.978 541.789 C 278.990 540.298, 279.981 538.164, 281.181 537.046 L 283.362 535.014 281.305 532.757 C 280.173 531.516, 278.946 528.814, 278.579 526.752 C 278.094 524.037, 277.145 522.609, 275.132 521.568 C 273.604 520.778, 271.770 519.427, 271.055 518.566 C 270.340 517.705, 268.926 517, 267.913 517 C 266.899 517, 265.589 516.100, 265 515 C 264.411 513.900, 263.061 513, 262 513 C 260.939 513, 259.589 512.100, 259 511 C 258.381 509.842, 256.906 509, 255.500 509 C 254.094 509, 252.619 508.158, 252 507 C 251.249 505.597, 249.906 505, 247.500 505 C 245.176 505, 243.748 504.398, 243.072 503.134 C 242.395 501.869, 240.563 501.098, 237.386 500.740 C 234.740 500.442, 232.335 499.564, 231.865 498.724 C 231.332 497.772, 228.626 496.979, 224.342 496.520 C 220.662 496.126, 217.167 495.689, 216.576 495.549 C 215.984 495.409, 211.283 495.637, 206.130 496.056 M 671.365 534.502 C 665.062 536.490, 663.194 537.749, 659.994 542.167 C 653.494 551.140, 649.082 575.771, 651.276 590.831 C 652.408 598.598, 656.909 606.667, 663.740 613.176 C 670.300 619.427, 673.868 620.701, 681.780 619.617 C 689.616 618.543, 695.909 610.414, 697.920 598.769 C 698.516 595.321, 699.661 589.350, 700.465 585.500 C 702.136 577.498, 702.477 555.258, 701.010 549.978 C 700.446 547.948, 697.958 544.414, 695.135 541.633 C 691.122 537.680, 688.996 536.470, 683.369 534.933 C 679.591 533.902, 676.275 533.090, 676 533.128 C 675.725 533.166, 673.639 533.785, 671.365 534.502 M 665.250 540.863 C 663.462 542.394, 662 544.340, 662 545.188 C 662 546.036, 661.100 547.874, 660 549.273 C 658.803 550.795, 657.991 553.357, 657.978 555.658 C 657.966 557.771, 657.066 561.462, 655.978 563.859 C 654.348 567.451, 654 570.400, 654 580.609 C 654 587.572, 654.407 593, 654.929 593 C 655.440 593, 656.596 595.540, 657.499 598.644 C 658.854 603.305, 660.280 605.395, 665.686 610.644 C 672.100 616.872, 672.342 617, 677.675 617 C 682.290 617, 683.717 616.518, 687.059 613.833 C 689.226 612.091, 691 609.873, 691 608.904 C 691 607.935, 691.785 606.357, 692.745 605.397 C 694.057 604.086, 694.655 601.201, 695.153 593.791 C 695.581 587.430, 696.381 583.068, 697.408 581.500 C 698.664 579.584, 699 576.243, 699 565.686 C 699 552.738, 698.910 552.168, 696.250 548.229 C 694.737 545.989, 691.751 542.771, 689.612 541.078 C 685.939 538.170, 685.251 538.002, 677.112 538.041 C 669.168 538.078, 668.248 538.297, 665.250 540.863 M 517.993 542.870 C 503.672 551.867, 493.655 577.269, 496.828 596.545 C 498.441 606.343, 506.712 618.667, 514.363 622.670 C 515.937 623.494, 519.562 624.409, 522.418 624.704 C 534.122 625.912, 540.978 618.241, 545.841 598.500 C 547.466 591.900, 549.559 583.624, 550.492 580.108 C 551.653 575.733, 552.080 571, 551.844 565.108 C 551.543 557.576, 551.116 555.878, 548.427 551.518 C 541.683 540.587, 527.873 536.663, 517.993 542.870 M 524.352 542.947 C 523.171 543.449, 521.907 544.341, 521.543 544.930 C 521.180 545.518, 520.084 546, 519.109 546 C 516.965 546, 510.696 552.984, 508.403 557.925 C 507.491 559.891, 506.184 562.175, 505.499 563 C 504.814 563.825, 503.955 566.168, 503.589 568.208 C 503.224 570.247, 502.270 573.172, 501.469 574.708 C 499.350 578.770, 499.375 600.546, 501.500 601.362 C 502.325 601.678, 503 602.676, 503 603.579 C 503 606.180, 508.887 614.574, 513.066 617.933 C 516.493 620.687, 517.583 621, 523.745 621 C 530.204 621, 530.785 620.809, 533.617 617.750 C 535.272 615.962, 537.151 613.263, 537.792 611.750 C 538.433 610.237, 539.417 609, 539.979 609 C 540.556 609, 541 606.492, 541 603.235 C 541 599.554, 541.668 596.211, 542.847 593.985 C 543.863 592.068, 544.974 588.081, 545.315 585.124 C 545.656 582.166, 546.625 578.695, 547.468 577.409 C 549.625 574.116, 549.651 558.464, 547.500 557.638 C 546.675 557.322, 546 556.164, 546 555.066 C 546 552.587, 540.351 546, 538.225 546 C 537.363 546, 535.890 545.306, 534.953 544.457 C 532.829 542.536, 527.205 541.734, 524.352 542.947 M 667.500 668.642 C 663.735 669.541, 650.503 674.067, 647.500 675.481 C 645.850 676.258, 641.800 678.081, 638.500 679.531 C 635.200 680.982, 628.900 683.871, 624.500 685.952 C 610.394 692.624, 607.300 694, 606.390 694.006 C 605.901 694.010, 604.228 694.676, 602.672 695.487 C 598.731 697.543, 583.785 701.011, 576 701.676 C 567.007 702.445, 543.378 698.723, 535.500 695.297 C 532.200 693.862, 524.641 689.721, 518.703 686.094 C 512.765 682.467, 505.340 678.080, 502.203 676.344 C 495.387 672.572, 484.942 670.744, 477.500 672.022 C 474.750 672.494, 472.015 672.908, 471.421 672.940 C 470.828 672.973, 468.283 674.365, 465.765 676.032 C 461.960 678.552, 460.733 680.198, 458.501 685.772 C 455.265 693.856, 455.513 696.340, 460.570 706.577 C 465.397 716.346, 474.878 725.297, 487.500 732.003 C 489.150 732.879, 491.400 734.087, 492.500 734.686 C 493.600 735.285, 497.200 737.046, 500.500 738.598 C 503.800 740.151, 508.550 742.843, 511.056 744.582 C 513.563 746.320, 516.713 748.080, 518.056 748.494 C 519.400 748.907, 520.950 749.597, 521.500 750.027 C 522.050 750.458, 527.225 752.069, 533 753.608 C 542.924 756.252, 544.625 756.403, 564 756.350 C 577.662 756.313, 587.876 755.760, 594.620 754.693 C 600.187 753.812, 608.962 752.802, 614.120 752.449 C 619.279 752.096, 626.425 750.929, 630 749.857 C 633.575 748.784, 639.425 747.032, 643 745.963 C 672.062 737.274, 687.095 729.629, 696.757 718.624 C 705.185 709.025, 708.283 695.347, 704.022 686.545 C 701.256 680.832, 693.991 674.444, 686.879 671.470 C 681.514 669.227, 671.293 667.735, 667.500 668.642 M 663.885 672.872 C 662.573 673.902, 659.475 675.084, 657 675.500 C 654.525 675.916, 651.427 677.098, 650.115 678.128 C 648.803 679.158, 646.849 680, 645.773 680 C 644.696 680, 642.671 680.900, 641.273 682 C 639.874 683.100, 637.849 684, 636.773 684 C 635.696 684, 633.671 684.900, 632.273 686 C 630.874 687.100, 628.952 688, 628 688 C 627.048 688, 625.126 688.900, 623.727 690 C 622.329 691.100, 620.304 692, 619.227 692 C 618.151 692, 616.126 692.900, 614.727 694 C 613.329 695.100, 611.304 696, 610.227 696 C 609.151 696, 607.121 696.904, 605.717 698.008 C 604.313 699.112, 600.990 700.298, 598.332 700.643 C 595.675 700.987, 592.675 701.988, 591.666 702.866 C 589.395 704.842, 566.072 705.718, 556 704.206 C 546 702.705, 535.755 699.849, 533.115 697.827 C 531.803 696.822, 530.074 696, 529.273 696 C 528.471 696, 526.671 695.100, 525.273 694 C 523.874 692.900, 522.186 692, 521.520 692 C 520.855 692, 519.495 691.100, 518.500 690 C 517.505 688.900, 516.155 688, 515.500 688 C 514.845 688, 513.495 687.100, 512.500 686 C 511.505 684.900, 509.930 684, 509 684 C 508.070 684, 506.495 683.100, 505.500 682 C 504.505 680.900, 503.145 680, 502.480 680 C 501.814 680, 500.044 679.035, 498.545 677.857 C 496.100 675.934, 494.551 675.710, 483.480 675.679 L 471.140 675.644 466.705 679.278 C 462.942 682.362, 462.162 683.639, 461.556 687.706 C 460.285 696.243, 461.301 703.607, 464.120 706.289 C 465.154 707.273, 466 708.757, 466 709.587 C 466 711.187, 475.283 721, 476.797 721 C 477.288 721, 478.505 721.900, 479.500 723 C 480.495 724.100, 481.845 725, 482.500 725 C 483.155 725, 484.505 725.900, 485.500 727 C 486.495 728.100, 488.070 729, 489 729 C 489.930 729, 491.458 729.848, 492.396 730.885 C 493.334 731.922, 495.466 733.043, 497.132 733.376 C 498.799 733.710, 501.311 734.886, 502.716 735.991 C 504.121 737.096, 506.039 738, 506.980 738 C 507.920 738, 509.505 738.900, 510.500 740 C 511.495 741.100, 512.690 742, 513.155 742 C 513.620 742, 514.900 742.900, 516 744 C 517.100 745.100, 519.143 746, 520.540 746 C 521.938 746, 524.300 746.857, 525.790 747.904 C 527.613 749.185, 531.089 750.022, 536.408 750.460 C 540.757 750.819, 545.573 751.762, 547.108 752.556 C 550.800 754.465, 574.977 754.623, 576.850 752.750 C 578.197 751.403, 578.721 751.351, 602 750.240 C 611.296 749.796, 618.382 748.996, 619.704 748.239 C 620.916 747.546, 624.741 746.701, 628.204 746.361 C 631.667 746.022, 635.903 744.901, 637.618 743.872 C 639.333 742.842, 642.265 742, 644.133 742 C 646.001 742, 649.209 741.100, 651.261 740 C 653.314 738.900, 656.284 738, 657.862 738 C 659.439 738, 661.803 737.159, 663.115 736.130 C 664.427 735.102, 666.931 733.948, 668.681 733.566 C 670.430 733.184, 672.374 732.254, 673 731.500 C 673.626 730.746, 675.410 729.849, 676.965 729.508 C 678.520 729.166, 680.584 728.012, 681.551 726.943 C 682.519 725.874, 683.859 725, 684.529 725 C 686.653 725, 697.891 713.286, 698.602 710.332 C 698.977 708.774, 700.120 705.830, 701.142 703.790 C 704.918 696.249, 702.748 688.018, 694.946 680.296 C 692.610 677.984, 689.461 675.821, 687.947 675.488 C 686.434 675.156, 683.481 674.010, 681.386 672.942 C 676.271 670.334, 667.164 670.298, 663.885 672.872" stroke="none" fill="#0a0905" fill-rule="evenodd"/></svg>