<svg xmlns="http://www.w3.org/2000/svg" version="1.0" width="83.200000pt" height="17.600000pt" viewBox="0 0 520.000000 110.000000" preserveAspectRatio="xMidYMid meet">
                        <g transform="translate(0.000000,110.000000) scale(0.100000,-0.100000)" fill="#fff" stroke="none">
                            <path d="M1167 895 c-152 -57 -225 -250 -167 -436 34 -112 109 -178 227 -199 261 -46 437 180 353 453 -23 74 -78 139 -145 172 -52 26 -211 32 -268 10z m213 -117 c50 -35 70 -68 82 -139 22 -132 -30 -242 -127 -268 -142 -38 -249 101 -215 279 18 99 77 150 170 150 43 0 65 -6 90 -22z" />
                            <path d="M710 893 l-185 -3 -170 -307 c-94 -169 -172 -314 -174 -322 -2 -11 4 -12 29 -7 18 3 51 6 74 6 41 0 42 1 74 65 l32 65 100 0 100 0 0 -65 0 -65 185 0 185 0 0 55 0 55 -125 0 -125 0 0 85 0 85 111 0 110 0 -3 48 -3 47 -105 1 -105 2 0 78 0 79 115 2 115 1 0 49 c0 44 -2 48 -25 48 -14 1 -108 -1 -210 -2z m-120 -263 l0 -130 -70 0 c-38 0 -70 2 -70 5 0 13 126 255 132 255 5 0 8 -58 8 -130z" />
                            <path d="M1640 580 l0 -321 66 3 65 3 -1 258 c0 141 3 257 7 257 5 0 63 -116 129 -257 l120 -258 92 0 c51 0 92 3 92 8 0 4 0 146 0 317 l0 310 -65 0 -65 0 0 -235 c0 -129 -3 -235 -7 -235 -5 0 -58 105 -120 233 l-111 232 -101 3 -101 3 0 -321z" />
                            <path d="M2720 789 l0 -110 -31 22 c-42 30 -95 40 -147 28 -56 -12 -93 -40 -123 -92 -21 -36 -24 -55 -24 -137 0 -86 3 -100 28 -142 60 -102 181 -129 267 -59 l40 32 0 -31 c0 -30 0 -30 55 -30 l55 0 0 315 0 315 -60 0 -60 0 0 -111z m-41 -170 c30 -28 41 -60 41 -121 0 -67 -25 -117 -67 -134 -41 -17 -74 -10 -104 22 -45 48 -41 190 6 232 34 29 93 30 124 1z" />
                            <path d="M3370 585 l0 -315 60 0 60 0 0 315 0 315 -60 0 -60 0 0 -315z" />
                            <path d="M3570 845 l0 -55 60 0 60 0 0 55 0 55 -60 0 -60 0 0 -55z" />
                            <path d="M4270 585 l0 -316 60 3 60 3 3 145 c4 186 19 219 103 220 69 0 73 -11 76 -201 l3 -164 63 -3 62 -3 0 158 c0 87 -5 175 -9 197 -26 110 -167 146 -269 69 l-33 -25 2 114 2 113 -62 3 -61 3 0 -316z" />
                            <path d="M4833 848 c-51 -29 -53 -32 -53 -73 0 -40 -2 -44 -27 -47 -26 -3 -28 -7 -31 -50 -3 -47 -3 -48 27 -48 l31 0 0 -140 c0 -162 10 -199 59 -220 33 -13 136 -10 150 6 4 5 6 28 3 51 -4 40 -5 42 -33 36 -52 -10 -59 6 -59 143 l0 124 46 0 45 0 -3 48 -3 47 -42 3 -43 3 0 75 c0 41 -3 74 -7 73 -5 0 -32 -14 -60 -31z" />
                            <path d="M3065 733 c-11 -2 -30 -6 -43 -9 -43 -9 -111 -82 -127 -137 -53 -179 41 -327 210 -327 87 0 157 37 191 102 17 32 14 34 -56 43 -53 6 -57 5 -67 -18 -24 -51 -111 -48 -143 6 -40 65 -37 66 133 69 l152 3 -3 45 c-10 135 -72 208 -187 222 -22 3 -49 4 -60 1z m100 -119 c14 -15 25 -38 25 -50 0 -23 -2 -24 -90 -24 -82 0 -90 2 -90 19 0 11 12 33 26 50 35 42 93 44 129 5z" />
                            <path d="M3893 730 c-48 -11 -98 -54 -123 -104 -29 -60 -30 -175 -3 -237 52 -118 181 -154 276 -78 l40 32 -6 -64 c-7 -79 -27 -99 -97 -99 -45 0 -72 13 -82 38 -1 5 -33 12 -70 16 -66 6 -68 6 -68 -16 0 -39 38 -88 83 -108 64 -29 207 -28 267 3 82 41 85 53 85 352 l0 260 -55 0 c-53 0 -55 -1 -55 -27 1 -34 0 -34 -36 -3 -27 22 -89 46 -114 44 -5 -1 -25 -5 -42 -9z m140 -111 c56 -43 60 -168 7 -221 -70 -69 -170 -7 -170 106 0 110 90 173 163 115z" />
                            <path d="M3570 500 l0 -230 60 0 60 0 0 230 0 230 -60 0 -60 0 0 -230z" />
                        </g>
</svg>